<?xml version="1.0" encoding="UTF-8" standalone="no"?>
<svg
   xmlns:dc="http://purl.org/dc/elements/1.1/"
   xmlns:cc="http://creativecommons.org/ns#"
   xmlns:rdf="http://www.w3.org/1999/02/22-rdf-syntax-ns#"
   xmlns:svg="http://www.w3.org/2000/svg"
   xmlns="http://www.w3.org/2000/svg"
   xmlns:sodipodi="http://sodipodi.sourceforge.net/DTD/sodipodi-0.dtd"
   xmlns:inkscape="http://www.inkscape.org/namespaces/inkscape"
   width="40"
   height="50"
   viewBox="-25 -50 100 300"
   version="1.1"
   id="svg8"
   inkscape:version="1.0 (4035a4fb49, 2020-05-01)"
   sodipodi:docname="minimize_normal.svg">
  <defs
     id="defs2" />
  <sodipodi:namedview
     id="base"
     pagecolor="#ffffff"
     bordercolor="#666666"
     borderopacity="1.0"
     inkscape:pageopacity="0.0"
     inkscape:pageshadow="2"
     inkscape:zoom="8.0000001"
     inkscape:cx="6.7892982"
     inkscape:cy="18.506714"
     inkscape:document-units="mm"
     inkscape:current-layer="layer3"
     showgrid="false"
     inkscape:window-width="1880"
     inkscape:window-height="1013"
     inkscape:window-x="20"
     inkscape:window-y="47"
     inkscape:window-maximized="0"
     inkscape:document-rotation="0" />
  <metadata
     id="metadata5">
    <rdf:RDF>
      <cc:Work
         rdf:about="">
        <dc:format>image/svg+xml</dc:format>
        <dc:type
           rdf:resource="http://purl.org/dc/dcmitype/StillImage" />
        <dc:title />
      </cc:Work>
    </rdf:RDF>
  </metadata>
  <g
     inkscape:groupmode="layer"
     id="layer3"
     inkscape:label="Layer 3"
     style="display:inline">
    <path
       style="fill:none;fill-rule:evenodd;stroke:#928374;stroke-width:41.27938843;stroke-linecap:round;stroke-linejoin:round;stroke-miterlimit:4;stroke-dasharray:none;stroke-opacity:1"
       d="m 25.002584,70.476684 34.243474,59.311456 -68.4921259,0 L 25.00317,70.466707"
       id="path4967"
       inkscape:connector-curvature="0"
       sodipodi:nodetypes="cccc" />
    <path
       style="fill:#292b34;stroke-width:0.125;fill-opacity:1"
       d="m 13.226798,33.165806 c -1.530522,-0.54556 -2.49982,-2.161745 -2.259125,-3.766813 0.05947,-0.396539 0.934826,-2.02423 3.209952,-5.968751 1.720504,-2.98294 3.239852,-5.542717 3.376328,-5.688393 0.405294,-0.432615 1.433034,-0.928218 2.084978,-1.005431 0.391641,-0.04638 0.856828,7.6e-5 1.304858,0.130322 1.268687,0.368817 1.513274,0.697805 4.936513,6.639974 l 3.096496,5.375 v 1.072302 c 0,0.975015 -0.03427,1.127727 -0.377679,1.683184 -0.440615,0.712678 -1.245765,1.367748 -1.906729,1.551313 -0.644838,0.179088 -12.957723,0.158326 -13.465592,-0.02271 z"
       id="path831"
       transform="matrix(6,0,0,6,-95,-50)" />
    <path
       transform="matrix(6,0,0,6,-95,-50)"
       id="path832"
       d="m 14.039298,33.145146 c -1.071274,-0.0911 -1.541452,-0.305405 -2.122888,-0.967625 -0.980687,-1.116941 -1.148064,-2.391183 -0.486292,-3.702145 0.449736,-0.890923 3.713008,-6.596562 5.206358,-9.10301 0.968347,-1.625281 1.041979,-1.713366 1.745798,-2.088498 0.974618,-0.519466 1.57502,-0.605071 2.453197,-0.349778 1.323984,0.384892 1.624458,0.796032 5.563602,7.612723 l 2.515225,4.352598 v 1.029179 c 0,0.914843 -0.03922,1.090916 -0.353084,1.584901 -0.395272,0.622124 -1.130952,1.311885 -1.629552,1.527842 -0.365528,0.15832 -11.22323,0.24575 -12.892364,0.103813 z"
       style="fill:#30333d;fill-opacity:0.613243;stroke-width:0.125" />
    <path
       transform="matrix(6,0,0,6,-95,-50)"
       id="path834"
       d="m 13.976798,33.109463 c -0.971859,-0.109823 -1.538429,-0.356865 -2.002526,-0.873165 -0.578666,-0.643758 -0.873561,-1.423957 -0.865149,-2.288914 0.0075,-0.769836 0.317771,-1.552867 1.2891,-3.25317 0.196374,-0.34375 0.4772,-0.835938 0.624059,-1.09375 0.146859,-0.257813 0.379516,-0.665625 0.517016,-0.90625 0.1375,-0.240625 0.37047,-0.648438 0.51771,-0.90625 0.147241,-0.257813 0.368436,-0.6375 0.491545,-0.84375 0.123109,-0.20625 0.374559,-0.65625 0.558777,-1 0.184218,-0.34375 0.404473,-0.709375 0.489455,-0.8125 0.08498,-0.103125 0.189997,-0.271875 0.233366,-0.375 0.04337,-0.103125 0.22007,-0.4125 0.39267,-0.6875 0.172599,-0.275 0.37308,-0.6125 0.445514,-0.75 0.458258,-0.869905 1.151653,-1.806619 1.339713,-1.809831 0.08594,-0.0015 0.15625,-0.05236 0.15625,-0.11309 0,-0.09059 0.26959,-0.210046 0.566674,-0.251093 0.03352,-0.0046 0.215044,-0.08482 0.403386,-0.178207 0.401058,-0.198849 1.465015,-0.175285 2.02994,0.04496 0.03438,0.0134 0.104688,0.01771 0.15625,0.0096 0.05156,-0.0081 0.09375,0.05082 0.09375,0.13103 0,0.08021 0.03294,0.112892 0.0732,0.07263 0.08638,-0.08638 1.176797,0.99208 1.176797,1.163888 0,0.06471 0.05625,0.117648 0.125,0.117648 0.06875,0 0.125,0.08438 0.125,0.1875 0,0.103125 0.05625,0.1875 0.125,0.1875 0.06875,0 0.125,0.065 0.125,0.144451 0,0.07945 0.130704,0.318511 0.290452,0.53125 0.159749,0.212739 0.329118,0.471174 0.376377,0.574299 0.04726,0.103125 0.196012,0.35625 0.330565,0.5625 0.134553,0.20625 0.330552,0.54375 0.435555,0.75 0.105001,0.20625 0.303668,0.557812 0.441481,0.78125 0.370379,0.600498 0.538342,0.887422 2.2895,3.911038 l 1.601429,2.765092 -0.02678,1.013216 c -0.0279,1.055443 -0.166386,1.456659 -0.730557,2.116536 -0.512544,0.599493 -1.123045,0.99568 -1.622745,1.053088 -0.80952,0.093 -11.778028,0.114836 -12.572774,0.02503 z"
       style="fill:none;fill-opacity:0.613243;stroke-width:0.125" />
    <path
       transform="matrix(6,0,0,6,-95,-50)"
       id="path836"
       d="m 16.289298,33.19583 c -2.569801,-0.072 -2.86913,-0.10376 -3.46875,-0.368099 -0.360937,-0.159116 -0.65651,-0.324563 -0.656828,-0.36766 -3.18e-4,-0.0431 -0.158081,-0.247107 -0.350583,-0.453357 -0.302107,-0.323683 -0.53379,-0.724029 -0.542537,-0.9375 -0.0014,-0.03437 -0.05148,-0.121443 -0.111266,-0.193483 -0.05979,-0.07204 -0.09127,-0.53133 -0.06996,-1.020646 0.03085,-0.708348 0.111221,-1.012833 0.394367,-1.494017 0.195593,-0.332395 0.488299,-0.857479 0.650458,-1.166854 0.162159,-0.309375 0.429854,-0.7875 0.594877,-1.0625 0.165023,-0.275 0.407503,-0.696875 0.538844,-0.9375 0.280728,-0.514309 0.557666,-0.998125 0.965932,-1.6875 0.162863,-0.275 0.417999,-0.725 0.566971,-1 1.840359,-3.397289 3.198722,-5.3125 3.767889,-5.3125 0.09073,0 0.275916,-0.07395 0.411526,-0.164339 0.322342,-0.214847 1.157346,-0.26115 1.76393,-0.09781 0.265448,0.07148 0.526243,0.130056 0.579544,0.130174 0.0533,1.19e-4 0.278301,0.170227 0.5,0.378019 0.221699,0.207792 0.445277,0.378063 0.496839,0.378382 0.05156,3.18e-4 0.09375,0.08672 0.09375,0.192001 0,0.105283 0.08405,0.223677 0.186782,0.263098 0.10273,0.03942 0.16199,0.11179 0.131689,0.160818 -0.0303,0.04903 0.06846,0.227536 0.219468,0.396682 0.151008,0.169147 0.381608,0.502826 0.512445,0.74151 0.130835,0.238683 0.398022,0.675851 0.59375,0.971485 0.195726,0.295635 0.355866,0.572455 0.355866,0.615158 0,0.0427 0.07902,0.166445 0.175594,0.274983 0.09658,0.108539 0.363763,0.554063 0.59375,0.990054 0.527146,0.999327 0.64448,1.202281 0.816736,1.412707 0.07635,0.09327 0.31593,0.507082 0.532397,0.919582 0.216467,0.4125 0.496073,0.91875 0.621345,1.125 1.640574,2.701042 1.760178,2.963321 1.760178,3.859881 0,0.878135 -0.205099,1.827619 -0.394786,1.827619 -0.05787,0 -0.105214,0.0525 -0.105214,0.116672 0,0.193633 -1.166801,1.264999 -1.436381,1.318897 -0.437809,0.08753 -5.833858,0.31767 -6.876119,0.293261 -0.55,-0.01288 -2.265625,-0.05888 -3.8125,-0.102214 z"
       style="fill:none;fill-opacity:0.613243;stroke-width:0.125" />
    <path
       transform="matrix(6,0,0,6,-95,-50)"
       id="path838"
       d="m 16.289298,33.19583 c -2.569801,-0.072 -2.86913,-0.10376 -3.46875,-0.368099 -0.360937,-0.159116 -0.65651,-0.324563 -0.656828,-0.36766 -3.18e-4,-0.0431 -0.158081,-0.247107 -0.350583,-0.453357 -0.302107,-0.323683 -0.53379,-0.724029 -0.542537,-0.9375 -0.0014,-0.03437 -0.05148,-0.121443 -0.111266,-0.193483 -0.05979,-0.07204 -0.09127,-0.53133 -0.06996,-1.020646 0.03085,-0.708348 0.111221,-1.012833 0.394367,-1.494017 0.195593,-0.332395 0.488299,-0.857479 0.650458,-1.166854 0.162159,-0.309375 0.429854,-0.7875 0.594877,-1.0625 0.165023,-0.275 0.407503,-0.696875 0.538844,-0.9375 0.280728,-0.514309 0.557666,-0.998125 0.965932,-1.6875 0.162863,-0.275 0.417999,-0.725 0.566971,-1 1.840359,-3.397289 3.198722,-5.3125 3.767889,-5.3125 0.09073,0 0.275916,-0.07395 0.411526,-0.164339 0.322342,-0.214847 1.157346,-0.26115 1.76393,-0.09781 0.265448,0.07148 0.526243,0.130056 0.579544,0.130174 0.0533,1.19e-4 0.278301,0.170227 0.5,0.378019 0.221699,0.207792 0.445277,0.378063 0.496839,0.378382 0.05156,3.18e-4 0.09375,0.08672 0.09375,0.192001 0,0.105283 0.08405,0.223677 0.186782,0.263098 0.10273,0.03942 0.16199,0.11179 0.131689,0.160818 -0.0303,0.04903 0.06846,0.227536 0.219468,0.396682 0.151008,0.169147 0.381608,0.502826 0.512445,0.74151 0.130835,0.238683 0.398022,0.675851 0.59375,0.971485 0.195726,0.295635 0.355866,0.572455 0.355866,0.615158 0,0.0427 0.07902,0.166445 0.175594,0.274983 0.09658,0.108539 0.363763,0.554063 0.59375,0.990054 0.527146,0.999327 0.64448,1.202281 0.816736,1.412707 0.07635,0.09327 0.31593,0.507082 0.532397,0.919582 0.216467,0.4125 0.496073,0.91875 0.621345,1.125 1.640574,2.701042 1.760178,2.963321 1.760178,3.859881 0,0.878135 -0.205099,1.827619 -0.394786,1.827619 -0.05787,0 -0.105214,0.0525 -0.105214,0.116672 0,0.193633 -1.166801,1.264999 -1.436381,1.318897 -0.437809,0.08753 -5.833858,0.31767 -6.876119,0.293261 -0.55,-0.01288 -2.265625,-0.05888 -3.8125,-0.102214 z"
       style="fill:#30333d;fill-opacity:1;stroke-width:0.125" />
    <path
       transform="matrix(6,0,0,6,-95,-50)"
       id="path840"
       d="m 15.976798,33.168888 c -2.763799,-0.121477 -3.06127,-0.145522 -3.061939,-0.2475 -3.13e-4,-0.04693 -0.118895,-0.122885 -0.263526,-0.168789 -0.350103,-0.111119 -0.908527,-0.740664 -1.271453,-1.433385 -0.237067,-0.452493 -0.289244,-0.726446 -0.266797,-1.400806 0.02869,-0.862042 0.213554,-1.350495 1.054653,-2.786694 0.201315,-0.34375 0.46571,-0.821875 0.587544,-1.0625 0.121835,-0.240625 0.257069,-0.465625 0.300519,-0.5 0.07067,-0.05591 0.199109,-0.289618 0.755668,-1.375 0.08813,-0.171875 0.197043,-0.340625 0.242022,-0.375 0.04498,-0.03437 0.271124,-0.413784 0.502544,-0.84313 0.231421,-0.429347 0.50514,-0.936903 0.608265,-1.127901 0.277231,-0.513462 1.15494,-2.003366 1.404873,-2.384761 0.119556,-0.182439 0.256078,-0.416083 0.303383,-0.519208 0.0473,-0.103125 0.118237,-0.215625 0.157626,-0.25 0.03939,-0.03437 0.290885,-0.335257 0.558879,-0.668627 0.78002,-0.970304 1.869736,-1.351585 3.105462,-1.086569 0.589016,0.126322 1.706582,0.804124 1.715912,1.0407 0.0049,0.123313 1.268187,2.000039 1.415959,2.103471 0.06009,0.04206 0.103993,0.126437 0.09756,0.1875 -0.0064,0.06106 0.07314,0.210105 0.176823,0.331204 0.103688,0.121098 0.188523,0.255901 0.188523,0.299562 0,0.04366 0.187061,0.366455 0.415691,0.717321 0.228631,0.350866 0.48858,0.82075 0.577665,1.044188 0.08909,0.223437 0.2114,0.40625 0.271809,0.40625 0.06041,0 0.109835,0.07679 0.109835,0.170643 0,0.09385 0.11171,0.312658 0.248244,0.486234 0.136535,0.173575 0.398486,0.617098 0.582116,0.985607 0.18363,0.368509 0.368377,0.698141 0.41055,0.732516 0.04217,0.03438 0.148074,0.203125 0.235334,0.375 0.08726,0.171875 0.2273,0.425 0.311201,0.5625 0.659744,1.08122 1.073019,1.81978 1.144741,2.045758 0.04656,0.146708 0.133178,0.266742 0.192476,0.266742 0.0593,0 0.09589,0.521969 0.08131,1.159931 -0.03032,1.326723 -0.196948,1.704248 -1.133077,2.567141 -0.654393,0.603199 -0.623868,0.597247 -3.972389,0.774534 -2.655444,0.140593 -4.089371,0.135634 -7.788006,-0.02693 z"
       style="fill:#30333d;fill-opacity:1;stroke-width:0.125" />
    <path
       transform="matrix(6,0,0,6,-95,-50)"
       id="path842"
       d="m 15.601798,33.175388 c -2.571248,-0.128077 -2.583603,-0.129515 -2.790179,-0.324924 -0.09085,-0.08594 -0.233977,-0.15625 -0.318064,-0.15625 -0.173361,0 -0.95685,-0.996514 -1.228484,-1.5625 -0.237487,-0.494835 -0.271131,-1.114828 -0.101559,-1.871494 0.11658,-0.520204 0.553797,-1.373472 2.132157,-4.161099 0.10663,-0.188324 0.321305,-0.567407 0.477056,-0.842407 0.155752,-0.275 0.418949,-0.725 0.584882,-1 0.165934,-0.275 0.341602,-0.584375 0.390373,-0.6875 0.399185,-0.844053 2.318847,-3.946172 2.77051,-4.477066 0.46842,-0.55059 1.112144,-1.049641 1.395808,-1.082109 0.03438,-0.0039 0.11875,-0.03871 0.1875,-0.07729 0.244156,-0.136996 1.167776,-0.128487 1.704867,0.01571 0.844036,0.226599 1.403549,0.724166 2.25435,2.004765 0.9424,1.418469 1.050133,1.589043 1.257497,1.990996 0.08867,0.171875 0.305785,0.5375 0.482481,0.8125 0.176696,0.275 0.492925,0.809375 0.702731,1.1875 0.209806,0.378125 1.006765,1.763392 1.77102,3.078371 0.764254,1.314979 1.389554,2.454041 1.389554,2.53125 0,0.07721 0.04772,0.140379 0.106054,0.140379 0.159442,0 0.176118,1.666305 0.02239,2.237214 -0.156411,0.580868 -1.201861,1.7895 -1.720072,1.988555 -0.85585,0.328747 -7.17416,0.469428 -11.47087,0.255405 z"
       style="fill:#30333d;fill-opacity:1;stroke-width:0.125" />
    <path
       transform="matrix(6,0,0,6,-95,-50)"
       id="path844"
       d="m 15.30957,33.184378 c -1.812471,-0.07613 -2.337774,-0.137505 -2.509842,-0.293225 -0.119688,-0.108317 -0.27194,-0.196939 -0.338337,-0.196939 -0.149044,0 -0.938679,-1.034564 -1.235021,-1.6181 -0.315348,-0.62096 -0.182038,-1.832926 0.311994,-2.836447 0.356337,-0.723823 4.075942,-7.254191 5.036856,-8.843015 1.038704,-1.717445 2.119486,-2.577438 3.239153,-2.577438 0.758743,0 1.64006,0.281367 2.103944,0.6717 0.609998,0.513279 1.850683,2.452646 4.51392,7.055899 l 2.482061,4.290098 -0.007,0.897402 c -0.0039,0.49357 -0.07419,1.085098 -0.15625,1.314505 -0.201253,0.562641 -1.062168,1.588918 -1.524195,1.816958 -0.77906,0.384515 -6.626447,0.540842 -11.917228,0.318602 z"
       style="fill:#30333d;fill-opacity:1;stroke-width:0.125" />
    <path
       transform="matrix(6,0,0,6,-95,-50)"
       id="path846"
       d="m 15.095613,33.181169 c -2.219224,-0.100453 -2.555606,-0.207608 -3.196073,-1.018116 -0.702531,-0.88905 -0.898081,-1.449997 -0.821968,-2.357865 0.08004,-0.954763 0.152832,-1.114188 1.96485,-4.303517 3.901218,-6.866523 4.601887,-7.908433 5.664101,-8.422642 0.969199,-0.469181 2.392649,-0.275336 3.250418,0.442641 0.589842,0.493715 1.719204,2.266201 4.474077,7.02187 l 2.48328,4.286826 v 0.974763 c 0,0.774825 -0.05769,1.080477 -0.28125,1.490151 -0.353881,0.648484 -1.151029,1.504374 -1.538235,1.65159 -0.833763,0.316995 -7.357899,0.444388 -11.9992,0.234299 z"
       style="fill:#30333d;fill-opacity:1;stroke-width:0.125" />
    <path
       transform="matrix(6,0,0,6,-95,-50)"
       id="path848"
       d="m 15.004978,33.183648 c -2.467779,-0.122448 -2.846793,-0.312822 -3.675274,-1.846043 -0.277655,-0.513839 -0.306408,-0.685785 -0.249098,-1.48962 0.07331,-1.028315 0.206189,-1.304898 2.806228,-5.841271 3.214871,-5.609088 3.832783,-6.497343 4.837299,-6.953664 1.010277,-0.458938 2.489208,-0.212377 3.325441,0.554403 0.70823,0.649408 1.769566,2.366414 5.909168,9.559712 l 0.955556,1.660451 -0.0033,0.964549 c -0.0022,0.646661 -0.07429,1.115506 -0.21875,1.42259 -0.236294,0.502303 -0.973623,1.356359 -1.427045,1.652963 -0.59065,0.386371 -7.336967,0.560213 -12.260247,0.31593 z"
       style="fill:#30333d;fill-opacity:1;stroke-width:0.125" />
    <path
       transform="matrix(6,0,0,6,-95,-50)"
       id="path850"
       d="m 14.948545,33.187146 c -1.628226,-0.08028 -1.966144,-0.132707 -2.338472,-0.362818 -0.551889,-0.341087 -0.964099,-0.83082 -1.32255,-1.571282 -0.240832,-0.497491 -0.271677,-0.711596 -0.20945,-1.453842 0.08267,-0.986064 0.284955,-1.403444 2.807373,-5.79249 3.25616,-5.665769 3.835103,-6.497766 4.838687,-6.953664 0.553596,-0.251482 1.520093,-0.30101 2.18011,-0.11172 1.286329,0.368915 1.749249,1.018877 6.119329,8.591849 l 1.890726,3.276464 v 0.946301 c 0,1.104194 -0.187914,1.635622 -0.834973,2.361337 -0.795801,0.892539 -0.882507,0.921005 -3.253946,1.068302 -2.365644,0.146937 -6.913725,0.147657 -9.876834,0.0016 z"
       style="fill:#30333d;fill-opacity:1;stroke-width:0.125" />
    <path
       transform="matrix(6,0,0,6,-95,-50)"
       id="path852"
       d="m 14.817369,33.189464 c -1.638238,-0.08376 -1.825211,-0.118224 -2.282212,-0.420654 -0.576213,-0.381319 -1.16885,-1.150005 -1.380084,-1.790049 -0.231819,-0.702417 -0.08104,-1.862862 0.354029,-2.724729 0.506294,-1.002963 2.623262,-4.726633 4.252142,-7.479366 2.022773,-3.418393 2.750715,-4.062111 4.440237,-3.926492 1.826004,0.146574 2.010946,0.376429 6.400839,7.955235 l 2.311978,3.991449 v 0.953693 c 0,0.549642 -0.07667,1.137188 -0.180965,1.386803 -0.22822,0.546207 -0.980108,1.452427 -1.421318,1.713056 -0.689927,0.40755 -7.538113,0.594479 -12.494646,0.341054 z"
       style="fill:#30333d;fill-opacity:1;stroke-width:0.125" />
    <path
       transform="matrix(6,0,0,6,-95,-50)"
       id="path854"
       d="m 14.697519,33.192653 c -1.504169,-0.07966 -1.699916,-0.11781 -2.157212,-0.420434 -0.580853,-0.38439 -1.17338,-1.151533 -1.385234,-1.793458 -0.08399,-0.254507 -0.119997,-0.783352 -0.08392,-1.232765 0.07002,-0.872336 0.36909,-1.490296 2.656592,-5.489282 4.060174,-7.097951 4.482607,-7.574694 6.557649,-7.40073 1.235351,0.103567 1.569576,0.312623 2.439248,1.52573 0.676463,0.943601 1.764728,2.748853 4.239225,7.032175 l 1.950433,3.376173 v 0.956091 c 0,1.06314 -0.171253,1.592332 -0.752986,2.326831 -0.689534,0.870607 -0.960515,0.965351 -3.184438,1.113382 -2.160784,0.143829 -7.619151,0.147167 -10.279355,0.0063 z"
       style="fill:#30333d;fill-opacity:1;stroke-width:0.125" />
    <path
       transform="matrix(6,0,0,6,-95,-50)"
       id="path856"
       d="m 14.697519,33.192653 c -1.504169,-0.07966 -1.699916,-0.11781 -2.157212,-0.420434 -0.580853,-0.38439 -1.17338,-1.151533 -1.385234,-1.793458 -0.08399,-0.254506 -0.119997,-0.783352 -0.08392,-1.232758 0.07464,-0.929834 0.519416,-1.817348 3.398984,-6.78236 2.776791,-4.787801 3.256295,-5.453611 4.256664,-5.910552 0.559505,-0.255567 1.622745,-0.302541 2.339868,-0.103376 1.107502,0.307583 1.565334,0.964472 5.888478,8.448673 l 1.959154,3.391674 v 0.933423 c 0,1.122925 -0.152841,1.612606 -0.721841,2.312679 -0.742325,0.913321 -1.00106,1.009517 -3.099114,1.152222 -2.051621,0.139549 -7.796819,0.141905 -10.395824,0.0043 z"
       style="fill:#30333d;fill-opacity:1;stroke-width:0.125" />
    <path
       transform="matrix(6,0,0,6,-95,-50)"
       id="path858"
       d="M 14.601798,33.195781 C 12.923192,33.101978 12.55938,32.972324 11.914811,32.2382 11.235812,31.464864 10.99917,30.785573 11.06896,29.810156 c 0.07076,-0.988939 0.445838,-1.745328 3.373698,-6.803442 2.764618,-4.776101 3.282829,-5.496252 4.28414,-5.953623 0.559505,-0.255567 1.622745,-0.302541 2.339868,-0.103376 1.106563,0.307322 1.538069,0.926094 5.888059,8.443357 l 1.959573,3.386359 v 0.938739 c 0,1.128114 -0.150154,1.619606 -0.705604,2.309618 -0.74179,0.921496 -1.034154,1.030578 -3.12515,1.166013 -2.04464,0.132434 -8.126741,0.133583 -10.481746,0.002 z"
       style="fill:#30333d;fill-opacity:1;stroke-width:0.125" />
    <path
       transform="matrix(6,0,0,6,-95,-50)"
       id="path860"
       d="m 14.476798,33.195008 c -1.54193,-0.09623 -1.935165,-0.242897 -2.560388,-0.954987 -0.833329,-0.949108 -1.097578,-2.209657 -0.697983,-3.329593 0.211148,-0.59178 1.454526,-2.860854 3.501402,-6.389799 1.732585,-2.987088 2.485022,-4.174147 3.036445,-4.790355 0.981212,-1.09649 3.118411,-1.23696 4.211934,-0.276834 0.599655,0.526504 1.81461,2.443459 4.556511,7.18926 l 2.389579,4.135986 v 1.004998 c 0,1.169072 -0.1824,1.696625 -0.837198,2.421406 -0.680312,0.753026 -0.961231,0.849538 -2.87428,0.987476 -1.895401,0.136665 -8.550908,0.13818 -10.726022,0.0024 z"
       style="fill:#30333d;fill-opacity:1;stroke-width:0.125" />
    <path
       transform="matrix(6,0,0,6,-95,-50)"
       id="path862"
       d="m 15.650358,33.263606 c -0.03058,-0.03058 -0.570543,-0.06603 -1.199909,-0.07876 -1.350125,-0.02732 -1.910011,-0.234098 -2.522417,-0.931589 -0.618178,-0.704066 -0.88281,-1.377051 -0.885989,-2.253158 -0.0034,-0.933022 0.324297,-1.645732 2.508552,-5.456113 3.586137,-6.255928 4.076473,-6.977374 5.050515,-7.430963 0.688177,-0.320469 1.669243,-0.38446 2.472855,-0.161295 1.016671,0.282332 1.606337,1.080539 4.615457,6.247764 3.529697,6.061155 3.224876,5.436618 3.224876,6.607319 0,0.592857 -0.07347,1.196282 -0.175354,1.440111 -0.217734,0.521111 -1.004169,1.404425 -1.460479,1.640391 -0.53193,0.275073 -3.291191,0.431263 -7.624584,0.431595 -2.171354,1.25e-4 -3.972939,-0.02472 -4.003523,-0.0553 z"
       style="fill:#30333d;fill-opacity:1;stroke-width:0.125" />
    <path
       transform="matrix(6,0,0,6,-95,-50)"
       id="path864"
       d="m 14.414298,33.200528 c -1.472466,-0.08536 -1.860514,-0.234578 -2.497888,-0.960507 -0.607372,-0.691758 -0.871206,-1.36838 -0.874367,-2.24238 -0.0034,-0.94682 0.37709,-1.759858 2.774591,-5.928427 3.357449,-5.837646 3.816865,-6.505595 4.784476,-6.956189 1.204042,-0.560695 2.793494,-0.32357 3.580587,0.534177 0.675375,0.735999 2.615266,3.915728 5.833516,9.561881 l 0.899085,1.577369 v 1.020396 c 0,0.592827 -0.07348,1.196251 -0.175354,1.440076 -0.217734,0.521111 -1.004169,1.404425 -1.460479,1.640391 -0.193857,0.100248 -1.064661,0.232036 -2.009393,0.304105 -1.749955,0.133494 -8.609869,0.13925 -10.854774,0.0091 z"
       style="fill:#30333d;fill-opacity:1;stroke-width:0.125" />
  </g>
</svg>
