<svg id="Layer_1" xmlns="http://www.w3.org/2000/svg" viewBox="0 0 334.3099976 143.4199982"><style>.st0{fill:#3C3836;}</style><path class="st0" d="M43.3717957 66.0723038h-.2807617c-.5058594 2.1542969-1.390625 4.0849609-2.6538086 5.7949219-1.2646484 1.7099609-2.7802734 3.1513672-4.5498047 4.3222656-1.7695313 1.1728516-3.6811523 2.0595703-5.7338848 2.6601563-2.0546875.6025391-4.1240234.9023438-6.2080078.9023438-3.4125977 0-6.3828125-.6318359-8.9106455-1.8994141-2.527832-1.2666016-4.628418-2.9599609-6.3027344-5.0830078-1.6743159-2.1210938-2.9389644-4.5908203-3.7910151-7.4101563-.8535156-2.8164063-1.2792971-5.8095703-1.2792971-8.9765625 0-3.2929688.4423831-6.3798828 1.3300784-9.2626953.8857422-2.8818359 2.2158203-5.4150391 3.9897456-7.6005859 1.7724609-2.1845703 3.9736328-3.9091797 6.6025391-5.1767578 2.6274424-1.2666016 5.6523447-1.9003906 9.0722666-1.9003906 2.3427734 0 4.5273438.3652344 6.5551758 1.0927734 2.0263653.7285156 3.8476543 1.7255859 5.4624004 2.9921875 1.6152344 1.2675781 2.9760742 2.7714844 4.0849609 4.5126953 1.1074219 1.7421875 1.9150391 3.5947266 2.4228516 5.5576172h.1899414v-13.015625h1.8046875v47.2148438c0 6.7128906-1.7856445 11.6523438-5.3540039 14.8203125-3.5698242 3.1660156-8.5454082 4.75-14.9267559 4.75-2.4643555 0-4.8022461-.2851563-7.0136719-.8544922-2.211915-.5703125-4.1694345-1.4726563-5.875001-2.7080078-1.7055664-1.234375-3.0639648-2.8349609-4.0747066-4.796875-1.0107422-1.9638672-1.5483398-4.3085938-1.6108398-7.0302734h1.9003901c.0620117 2.40625.5532227 4.4648438 1.472168 6.1748047.9174805 1.7099609 2.1376953 3.1025391 3.6577148 4.1796875 1.5200195 1.0761719 3.2612314 1.8671875 5.2250986 2.375 1.9619141.5068359 4.0522461.7607422 6.2700195.7607422 5.9521484 0 10.5283184-1.4257813 13.7270489-4.2753906 3.1977539-2.8496094 4.7978516-7.3154297 4.7978516-13.3955078V66.0723038zm-.0952149-9.6894532c0-2.7871094-.3959961-5.5107422-1.1875-8.1708984-.7924805-2.6591797-1.9638672-5.0185547-3.5151367-7.0771484-1.5522461-2.0576172-3.5-3.7050781-5.8422852-4.9394531-2.3437481-1.2353516-5.0351543-1.8525391-8.0751934-1.8525391-3.1674805 0-5.9375.5859375-8.3125 1.7568359-2.375001 1.1728516-4.3696299 2.7714844-5.9848642 4.7978516-1.6147461 2.0273438-2.8188472 4.3701172-3.6098628 7.0302734-.7924805 2.6591797-1.1875 5.4785156-1.1875 8.4550781 0 3.0390625.3950195 5.8583984 1.1875 8.4541016.7910156 2.5976563 1.9624019 4.8613281 3.5151362 6.7929688 1.5507813 1.9326172 3.4672852 3.4521484 5.7470713 4.5595703 2.2802734 1.109375 4.9077148 1.6630859 7.8852539 1.6630859 3.1025391 0 5.8735352-.5703125 8.3124981-1.7099609 2.4375-1.140625 4.4648438-2.6748047 6.0800781-4.6074219 1.6147461-1.9316406 2.8500977-4.1953125 3.7050781-6.7929688.8549805-2.5957031 1.2822266-5.3818359 1.2822266-8.359375zM62.181366 82.4121475h-1.8999023V33.5820694h1.8999023v12.0654297h.1899414c.4423828-1.7724609 1.1401367-3.4824219 2.0898438-5.1298828.9501953-1.6464844 2.2163086-3.0878906 3.800293-4.3222656 1.5820313-1.2353516 3.4672852-2.1855469 5.6523438-2.8505859s4.7338867-.9648438 7.6474609-.9023438v1.9003906c-3.3574219-.1904297-6.2548828.2695313-8.6923828 1.3769531-2.4389648 1.109375-4.4501953 2.6289063-6.0327148 4.5605469-1.5834961 1.9326172-2.7548828 4.1650391-3.5146484 6.6972656-.7602539 2.5332031-1.1401367 5.1298828-1.1401367 7.7900391v27.6445312zm64.5039062 0h-1.8999023V70.3476944h-.1899414c-.4438477 1.8994141-1.15625 3.6425781-2.1376953 5.2246094-.9824219 1.5839844-2.2172852 2.9775391-3.7050781 4.1796875-1.4887695 1.2041016-3.2148438 2.1376953-5.1772461 2.8027344-1.9638672.6650391-4.1489258.9980469-6.5551758.9980469-2.5336914 0-4.8613281-.3808594-6.9824219-1.140625-2.1225586-.7597656-3.9589844-1.8837891-5.5097656-3.3720703-1.5527344-1.4873047-2.7553711-3.3251953-3.6103516-5.5097656-.8549805-2.1855469-1.2822266-4.703125-1.2822266-7.5527344V33.5820694h1.8999023V65.692421c0 2.8496094.4111328 5.2724609 1.2348633 7.2675781.8222656 1.9951172 1.9477539 3.6425781 3.3725586 4.9394531 1.425293 1.2988281 3.0712891 2.2490234 4.9399414 2.8505859 1.8676758.6025391 3.8476563.9023438 5.9375.9023438 2.9125977 0 5.4775391-.5537109 7.6953125-1.6621094 2.2158203-1.1074219 4.0683594-2.5966797 5.5571289-4.4658203 1.4873047-1.8671875 2.612793-4.0371094 3.3725586-6.5068359.7602539-2.4707031 1.1401367-5.0664063 1.1401367-7.7900391V33.5820694h1.8999023v48.8300781zm47.6904297-48.8300781h2.0898438l-18.4301758 48.8300781h-2.375l-20.1401367-48.8300781h2.2802734l18.9047852 46.9306641h.1899414l17.4804687-46.9306641zm12.8242188 13.6806641h.1904297c1.1396484-4.4326172 3.3867188-8.0117188 6.7451172-10.7353516 3.3554688-2.7226563 7.6308594-4.0849609 12.8242188-4.0849609 3.3564453 0 6.3330078.6972656 8.9306641 2.0898438 2.5957031 1.3935547 4.7646484 3.2626953 6.5068359 5.6054688 1.7412109 2.34375 3.0712891 5.0673828 3.9902344 8.1699219.9179688 3.1035156 1.3779297 6.3642578 1.3779297 9.7851563 0 3.6738281-.4755859 7.0625-1.4248047 10.1650391-.9501953 3.1035156-2.328125 5.7949219-4.1328125 8.0742188-1.8046875 2.2802734-3.9902344 4.0537109-6.5546875 5.3203125-2.5654297 1.2666016-5.4628906 1.9003906-8.6933594 1.9003906-2.4697266 0-4.765625-.3652344-6.8867188-1.0927734-2.1230469-.7275391-4.0234375-1.7578125-5.7001953-3.0878906-1.6787109-1.3300781-3.1035156-2.8974609-4.2753906-4.7021484-1.1728516-1.8046875-2.0751953-3.7841797-2.7070313-5.9375h-.1904297v13.6796875h-1.8994141V14.5820704h1.8994141v32.6806631zm0 10.8300781c0 3.1669922.4423828 6.1748047 1.3300781 9.0244141.8867188 2.8505859 2.1689453 5.3525391 3.8476563 7.5048828 1.6777344 2.1542969 3.7363281 3.8642578 6.1748047 5.1298828 2.4375 1.2675781 5.2402344 1.9003906 8.4072266 1.9003906s5.9375-.6328125 8.3125-1.9003906c2.375-1.265625 4.3378906-2.9921875 5.890625-5.1767578 1.5507813-2.1855469 2.7226563-4.6865234 3.5146484-7.5048828.7910156-2.8173828 1.1875-5.8105469 1.1875-8.9775391 0-2.8505859-.3652344-5.6845703-1.0927734-8.5029297-.7285156-2.8173828-1.8515625-5.3515625-3.3720703-7.5996094-1.5195313-2.2480469-3.4677734-4.0849609-5.8427734-5.5107422-2.375-1.4248047-5.2412109-2.1367188-8.5976563-2.1367188-2.9775391 0-5.6845703.5224609-8.1220703 1.5673828-2.4384766 1.0449219-4.5126953 2.5810547-6.2226563 4.6074219-1.7099609 2.0273438-3.0400391 4.5126953-3.9902344 7.4570313-.9492188 2.9453125-1.4248047 6.3173828-1.4248047 10.1181641zm51.2988281-.0957031c0-3.2919922.4746094-6.4912109 1.4248047-9.5947266.9501953-3.1025391 2.359375-5.8261719 4.2275391-8.1699219 1.8671875-2.3427734 4.1640625-4.2275391 6.8876953-5.6523438 2.7226563-1.4248047 5.8896484-2.1376953 9.5-2.1376953 3.5458984 0 6.6816406.7128906 9.4052734 2.1376953 2.7216797 1.4248047 5.0185547 3.3095703 6.8876953 5.6523438 1.8671875 2.34375 3.2773438 5.0673828 4.2275391 8.1699219.9492188 3.1035156 1.4248047 6.3027344 1.4248047 9.5947266 0 3.3583984-.4755859 6.5712891-1.4248047 9.6425781-.9501953 3.0732422-2.3603516 5.7949219-4.2275391 8.1699219-1.8691406 2.375-4.1660156 4.2607422-6.8876953 5.6523438-2.7236328 1.3925781-5.890625 2.0908203-9.5 2.0908203-3.5478516 0-6.6972656-.6982422-9.453125-2.0908203-2.7548828-1.3916016-5.0507813-3.2773438-6.8867188-5.6523438-1.8378906-2.375-3.2304688-5.0966797-4.1806641-8.1699219-.9501952-3.0712891-1.4248046-6.2841797-1.4248046-9.6425781zm1.9003906 0c0 3.1044922.4267578 6.0800781 1.2822266 8.9306641.8544922 2.8496094 2.1376953 5.3671875 3.8476563 7.5517578 1.7099609 2.1855469 3.8144531 3.9277344 6.3173828 5.2255859 2.5009766 1.2988281 5.3984375 1.9472656 8.6923828 1.9472656 3.2304688 0 6.0947266-.6484375 8.5976563-1.9472656 2.5009766-1.2978516 4.6074219-3.0400391 6.3173828-5.2255859 1.7099609-2.1845703 2.9921875-4.7021484 3.8476563-7.5517578.8544922-2.8505859 1.2822266-5.8261719 1.2822266-8.9306641 0-3.0400391-.4277344-5.984375-1.2822266-8.8349609-.8554688-2.8496094-2.1376953-5.3671875-3.8476563-7.5527344-1.7099609-2.1845703-3.8164063-3.9423828-6.3173828-5.2724609-2.5029297-1.3291016-5.3671875-1.9941406-8.5976563-1.9941406-3.2939453 0-6.1914063.6650391-8.6923828 1.9941406-2.5029297 1.3300781-4.6074219 3.0878906-6.3173828 5.2724609-1.7099609 2.1855469-2.9931641 4.703125-3.8476563 7.5527344-.8554688 2.8505859-1.2822266 5.7949218-1.2822266 8.8349609zm85.59375-24.4150391h2.2802734l-17.8603516 23.5605469 19.5703125 25.2695313h-2.375L309.1784363 58.567421l-18.3349609 23.8447266h-2.375l19.5693359-25.2695313-17.7646484-23.5605469h2.4697266l16.4355469 22.1357422 16.814453-22.1357422zm4.6621094 64.8300781h-270.5v2h270.5v-2zm-114.7783203 23.069336v-.9892578h2.7597656v-3.1806641c0-.5390625.0908203-1.0039063.2705078-1.3945313.1796875-.3896484.4238281-.7050781.734375-.9453125s.6699219-.4199219 1.0800781-.5390625c.4101563-.1210938.8447266-.1806641 1.3046875-.1806641.4003906 0 .8505859.0498047 1.3505859.1503906v.9892578c-.5-.0996094-.9501953-.1494141-1.3505859-.1494141-.6396484 0-1.1748047.1455078-1.6044922.4345703-.4306641.2910156-.6455078.8652344-.6455078 1.7255859v3.0898438h3.2109375v.9892578h-3.2109375v14.4306717h-1.1396484v-14.4306717h-2.7597656zm9.6904297 6.7207107c0-1.099617.1542969-2.1347733.4648438-3.1054764.3095703-.96875.7646484-1.8242188 1.3652344-2.5644531.5996094-.7402344 1.3398438-1.3242188 2.21875-1.7548828.8808594-.4306641 1.890625-.6455078 3.03125-.6455078 1.1396484 0 2.1484375.2148438 3.0292969.6455078.8798828.4306641 1.6201172 1.0146484 2.2207031 1.7548828.5996094.7402344 1.0546875 1.5957031 1.3642578 2.5644531.3095703.9707031.4658203 2.0058594.4658203 3.1054764 0 1.0996094-.15625 2.140625-.4658203 3.1201172s-.7646484 1.8349609-1.3642578 2.5654297c-.6005859.7294922-1.3408203 1.3095703-2.2207031 1.7392578-.8808594.4306641-1.8896484.6455078-3.0292969.6455078-1.140625 0-2.1503906-.2148438-3.03125-.6455078-.8789063-.4296875-1.6191406-1.0097656-2.21875-1.7392578-.6005859-.7304688-1.0556641-1.5859375-1.3652344-2.5654297-.310547-.9794922-.4648438-2.0205078-.4648438-3.1201172zm1.1396484 0c0 .9199219.1298828 1.8046875.3896484 2.6542969.2597656.8515625.640625 1.6054688 1.140625 2.265625s1.1191406 1.1855469 1.859375 1.5751953 1.5898438.5849609 2.5507813.5849609c.9589844 0 1.8085938-.1953125 2.5488281-.5849609s1.3603516-.9150391 1.8613281-1.5751953c.4990234-.6601563.8789063-1.4140625 1.1386719-2.265625.2597656-.8496094.390625-1.734375.390625-2.6542969 0-.9199295-.1308594-1.8046951-.390625-2.6552811-.2597656-.8496094-.6396484-1.6044922-1.1386719-2.2646484-.5009766-.6601563-1.1210938-1.1855469-1.8613281-1.5751953s-1.5898438-.5849609-2.5488281-.5849609c-.9609375 0-1.8105469.1953125-2.5507813.5849609s-1.359375.9150391-1.859375 1.5751953-.8808594 1.4150391-1.140625 2.2646484c-.2597656.850586-.3896484 1.7353516-.3896484 2.6552811zm18.3291016-4.2900467h.0908203c.1396484-.4990234.3994141-.9697266.7802734-1.4101563.3789063-.4394531.8291016-.8193359 1.3496094-1.1396484.5195313-.3203125 1.1054688-.5644531 1.7548828-.7353516.6494141-.1689453 1.3251953-.2451172 2.0244141-.2246094v1.1396484c-.5996094-.0800781-1.2851563-.0195313-2.0546875.1796875-.7695313.2011719-1.5048828.640625-2.2050781 1.3203125-.2792969.3007813-.5244141.5898438-.734375.8701172s-.3857422.5908203-.5253906.9306641c-.140625.3398438-.25.71875-.3300781 1.1386719-.0800781.4208984-.1298828.9208984-.1503906 1.5v8.4306717h-1.1386719v-15.4199295h1.1386719v3.4199219zm29.9101562 9.1240311c0 .21875.0048828.4394531.015625.6582031.0097656.2197266.0449219.4189453.1044922.5986328.0595703.1806641.1601563.3251953.2998047.4345703.140625.109375.3398438.1640625.5996094.1640625.2001953 0 .4804688-.0292969.8408203-.0898438v.9902344c-.1611328.0410156-.3154297.0703125-.4658203.0898438-.1494141.0205078-.3046875.0302734-.4648438.0302734-.4599609 0-.8242188-.0595703-1.0947266-.1806641-.2695313-.1191406-.4755859-.2792969-.6142578-.4794922-.140625-.2001953-.2363281-.4345703-.2851563-.7050781-.0507813-.2695313-.0751953-.5644531-.0751953-.8847656v-.8095703h-.0595703c-.1806641.4599609-.4414063.8945313-.78125 1.3046875s-.7539063.7753906-1.2441406 1.0947266c-.4902344.3203125-1.0449219.5703125-1.6650391.75-.6201172.1806641-1.2998047.2705078-2.0400391.2705078-.7207031 0-1.3945313-.0751953-2.0253906-.2255859-.6298828-.1494141-1.1796875-.3945313-1.6503906-.7353516-.4697266-.3398438-.8339844-.7841797-1.09375-1.3339844-.2607422-.5507813-.390625-1.2353516-.390625-2.0556641 0-.8994141.1748047-1.6347656.5253906-2.2041016.3496094-.5703125.7988281-1.0205078 1.3496094-1.3505859.5498047-.3300781 1.1601563-.5654373 1.8300781-.7050858s1.3242188-.2402344 1.9648438-.2998047c1.2792969-.0800781 2.2753906-.1748047 2.9853516-.2851563.7099609-.109375 1.234375-.2792969 1.5751953-.5097656.3398438-.2304688.5488281-.5292969.6289063-.9003906.0800781-.3691406.1210938-.875.1210938-1.5146484 0-.1806641-.0605469-.4345703-.1806641-.7646484s-.3349609-.6650391-.6445313-1.0058594c-.3105469-.3398438-.7451172-.6347656-1.3056641-.8847656-.5595703-.25-1.2792969-.375-2.1601563-.375-1.3789063 0-2.4941406.3496094-3.34375 1.0498047-.8515625.7001953-1.3164063 1.7207031-1.3955078 3.0595703h-1.1396484c.0791016-1.6992188.625-2.9746094 1.6347656-3.8242188s2.4248047-1.2753906 4.2441406-1.2753906c.6796875 0 1.3398438.0605469 1.9804688.1796875.640625.1201172 1.2148438.3300781 1.7246094.6289063.5107422.2998047.9199219.7089844 1.2304688 1.2285156.3105469.5185547.4648438 1.1767578.4648438 1.9746094v8.8925858zm-1.1396484-5.8837967c-.2207031.2597656-.5302734.4550781-.9306641.5849609s-.8544922.2246094-1.3642578.2851639c-.5107422.0595703-1.0458984.109375-1.6054688.1494141s-1.1201172.1005859-1.6796875.1806641c-1.3603516.1601563-2.4052734.5048828-3.1357422 1.0351563-.7294922.5292969-1.09375 1.375-1.09375 2.5341797 0 .9404297.3339844 1.7353516 1.0039063 2.3857422.6699219.6494141 1.6855469.9746094 3.0449219.9746094 1.3007813 0 2.3300781-.234375 3.0908203-.7050781.7597656-.4697266 1.3388672-1.0097656 1.7392578-1.6201172s.6552734-1.2001953.765625-1.7705078c.109375-.5693359.1650391-.9541016.1650391-1.1542969v-2.8798906zm11.9404297-5.6708984h-3.3603516v10.7705154c0 .6201172.0693359 1.1103516.2099609 1.4697266.1396484.3603516.3544922.6308594.6445313.8105469s.640625.2949219 1.0507813.3447266c.4091797.0498047.8847656.0654297 1.4238281.0449219v.9902344c-.5800781.0400391-1.1445313.0341797-1.6943359-.0146484-.5498047-.0498047-1.0351563-.2001953-1.4550781-.4501953s-.7548828-.625-1.0048828-1.125-.3554688-1.1904297-.3144531-2.0703125v-10.7705154h-2.8505859v-.9892578h2.8505859v-4.7998047h1.1396484v4.7998047h3.3603516v.9892576zm2.8789062 6.7207107c0-1.099617.1542969-2.1347733.4648438-3.1054764.3105469-.96875.765625-1.8242188 1.3652344-2.5644531s1.3398438-1.3242188 2.2197266-1.7548828 1.8896484-.6455078 3.0302734-.6455078 2.1494141.2148438 3.0292969.6455078c.8808594.4306641 1.6210938 1.0146484 2.2207031 1.7548828s1.0546875 1.5957031 1.3652344 2.5644531c.3095703.9707031.4648438 2.0058594.4648438 3.1054764 0 1.0996094-.1552734 2.140625-.4648438 3.1201172-.3105469.9794922-.765625 1.8349609-1.3652344 2.5654297-.5996094.7294922-1.3398438 1.3095703-2.2207031 1.7392578-.8798828.4306641-1.8886719.6455078-3.0292969.6455078s-2.1503906-.2148438-3.0302734-.6455078c-.8798828-.4296875-1.6201172-1.0097656-2.2197266-1.7392578-.5996094-.7304688-1.0546875-1.5859375-1.3652344-2.5654297s-.4648438-2.0205078-.4648438-3.1201172zm1.140625 0c0 .9199219.1289063 1.8046875.3896484 2.6542969.2587891.8515625.6396484 1.6054688 1.1396484 2.265625s1.1201172 1.1855469 1.8603516 1.5751953c.7392578.3896484 1.5898438.5849609 2.5498047.5849609s1.8095703-.1953125 2.5498047-.5849609c.7392578-.3896484 1.3603516-.9150391 1.8603516-1.5751953s.8798828-1.4140625 1.1396484-2.265625c.2597656-.8496094.3896484-1.734375.3896484-2.6542969 0-.9199295-.1298828-1.8046951-.3896484-2.6552811-.2597656-.8496094-.6396484-1.6044922-1.1396484-2.2646484s-1.1210938-1.1855469-1.8603516-1.5751953c-.7402344-.3896484-1.5898438-.5849609-2.5498047-.5849609s-1.8105469.1953125-2.5498047.5849609c-.7402344.3896484-1.3603516.9150391-1.8603516 1.5751953s-.8808594 1.4150391-1.1396484 2.2646484c-.2607421.850586-.3896484 1.7353516-.3896484 2.6552811zm17.21875-7.7099686h1.140625v3.1494141h.0595703c.1201172-.4794922.3300781-.9335938.6298828-1.3642578s.6640625-.8056641 1.0947266-1.125.9101563-.5703125 1.4404297-.75c.5292969-.1806641 1.0839844-.2705078 1.6650391-.2705078.7392578 0 1.3798828.0957031 1.9199219.2851563.5400391.1904297.9990234.4404297 1.3798828.75.3798828.3105469.6796875.6601563.9003906 1.0507813.21875.3886719.3691406.7851563.4492188 1.1845703h.0605469c.4589844-1.0595703 1.0742188-1.8701172 1.8447266-2.4306641.7695313-.5585938 1.7851563-.8398438 3.0449219-.8398438.7001953 0 1.3447266.1054688 1.9345703.3154297s1.0996094.5302734 1.53125.9599609c.4296875.4296875.7636719.9746094 1.0039063 1.6347656s.3603516 1.4394531.3603516 2.3398438v10.5302811h-1.1396484v-10.5595779c0-.9804688-.1503906-1.75-.4501953-2.3105469-.2998047-.5595703-.6552734-.984375-1.0654297-1.2753906-.4101563-.2890625-.8203125-.46875-1.2294922-.5390625-.4101563-.0703125-.7255859-.1054688-.9453125-.1054688-.7001953 0-1.3447266.1201172-1.9345703.359375-.5898438.2402344-1.1005859.6005859-1.5302734 1.0800781-.4306641.4804688-.7646484 1.0761719-1.0048828 1.7851563-.2402344.7109375-.3603516 1.5253906-.3603516 2.4453125v9.1201248h-1.1396484v-10.5595779c0-.9609375-.1455078-1.7255859-.4355469-2.2949219-.2890625-.5703125-.6289063-.9951172-1.0195313-1.2753906-.390625-.2792969-.7910156-.4599609-1.2001953-.5400391-.4101563-.0791016-.7353516-.1201172-.9746094-.1201172-.5400391 0-1.1005859.1103516-1.6806641.3300781-.5800781.2207031-1.109375.5605469-1.5898438 1.0195313-.4794922.4609375-.8691406 1.0507813-1.1699219 1.7705078-.2998047.7197266-.4492188 1.5703125-.4492188 2.5498047v9.1201248h-1.140625v-15.4199296z"/></svg>