<?xml version="1.0" encoding="UTF-8" standalone="no"?>
<svg
   xmlns:dc="http://purl.org/dc/elements/1.1/"
   xmlns:cc="http://creativecommons.org/ns#"
   xmlns:rdf="http://www.w3.org/1999/02/22-rdf-syntax-ns#"
   xmlns:svg="http://www.w3.org/2000/svg"
   xmlns="http://www.w3.org/2000/svg"
   xmlns:sodipodi="http://sodipodi.sourceforge.net/DTD/sodipodi-0.dtd"
   xmlns:inkscape="http://www.inkscape.org/namespaces/inkscape"
   inkscape:version="1.0 (4035a4fb49, 2020-05-01)"
   sodipodi:docname="processor.svg"
   xml:space="preserve"
   style="enable-background:new 0 0 512 512;"
   viewBox="0 0 512 512"
   y="0px"
   x="0px"
   id="Capa_1"
   version="1.1"><metadata
   id="metadata145"><rdf:RDF><cc:Work
       rdf:about=""><dc:format>image/svg+xml</dc:format><dc:type
         rdf:resource="http://purl.org/dc/dcmitype/StillImage" /></cc:Work></rdf:RDF></metadata><defs
   id="defs143" /><sodipodi:namedview
   inkscape:current-layer="Capa_1"
   inkscape:window-maximized="0"
   inkscape:window-y="47"
   inkscape:window-x="20"
   inkscape:cy="254.90598"
   inkscape:cx="136.02279"
   inkscape:zoom="1.3710938"
   showgrid="false"
   id="namedview141"
   inkscape:window-height="1013"
   inkscape:window-width="1880"
   inkscape:pageshadow="2"
   inkscape:pageopacity="0"
   guidetolerance="10"
   gridtolerance="10"
   objecttolerance="10"
   borderopacity="1"
   bordercolor="#666666"
   pagecolor="#ffffff" />
<g
   id="g6">
	<g
   id="g4">
		<path
   id="path2"
   d="M401.268,93.739H110.184c-9.083,0-16.445,7.362-16.445,16.445v291.083c0,9.083,7.362,16.445,16.445,16.445h291.083    c9.083,0,16.445-7.362,16.445-16.445V110.184C417.713,101.101,410.351,93.739,401.268,93.739z M384.822,384.822H126.63V126.63    h258.193V384.822z" />
	</g>
</g>
<g
   id="g12">
	<g
   id="g10">
		<path
   id="path8"
   d="M224.754,0c-9.083,0-16.445,7.362-16.445,16.445v52.077c0,9.083,7.362,16.445,16.445,16.445    c9.083,0,16.445-7.362,16.445-16.445V16.445C241.199,7.362,233.837,0,224.754,0z" />
	</g>
</g>
<g
   id="g18">
	<g
   id="g16">
		<path
   id="path14"
   d="M287.246,0c-9.083,0-16.445,7.362-16.445,16.445v52.077c0,9.083,7.362,16.445,16.445,16.445    c9.089,0,16.445-7.362,16.445-16.445V16.445C303.692,7.362,296.33,0,287.246,0z" />
	</g>
</g>
<g
   id="g24">
	<g
   id="g22">
		<path
   id="path20"
   d="M162.261,0c-9.083,0-16.445,7.362-16.445,16.445v52.077c0,9.083,7.362,16.445,16.445,16.445    c9.083,0,16.445-7.362,16.445-16.445V16.445C178.707,7.362,171.345,0,162.261,0z" />
	</g>
</g>
<g
   id="g30">
	<g
   id="g28">
		<path
   id="path26"
   d="M349.739,0c-9.083,0-16.445,7.362-16.445,16.445v52.077c0,9.083,7.362,16.445,16.445,16.445    c9.083,0,16.445-7.362,16.445-16.445V16.445C366.184,7.362,358.822,0,349.739,0z" />
	</g>
</g>
<g
   id="g36">
	<g
   id="g34">
		<path
   id="path32"
   d="M224.754,427.032c-9.083,0-16.445,7.362-16.445,16.445v52.077c0,9.083,7.362,16.445,16.445,16.445    c9.083,0,16.445-7.357,16.445-16.445v-52.077C241.199,434.394,233.837,427.032,224.754,427.032z" />
	</g>
</g>
<g
   id="g42">
	<g
   id="g40">
		<path
   id="path38"
   d="M287.246,427.032c-9.083,0-16.445,7.362-16.445,16.445v52.077c0,9.083,7.362,16.445,16.445,16.445    c9.089,0,16.445-7.357,16.445-16.445v-52.077C303.692,434.394,296.33,427.032,287.246,427.032z" />
	</g>
</g>
<g
   id="g48">
	<g
   id="g46">
		<path
   id="path44"
   d="M162.261,427.032c-9.083,0-16.445,7.362-16.445,16.445v52.077c0,9.083,7.362,16.445,16.445,16.445    c9.083,0,16.445-7.357,16.445-16.445v-52.077C178.707,434.394,171.345,427.032,162.261,427.032z" />
	</g>
</g>
<g
   id="g54">
	<g
   id="g52">
		<path
   id="path50"
   d="M349.739,427.032c-9.083,0-16.445,7.362-16.445,16.445v52.077c0,9.083,7.362,16.445,16.445,16.445    c9.083,0,16.445-7.357,16.445-16.445v-52.077C366.184,434.394,358.822,427.032,349.739,427.032z" />
	</g>
</g>
<g
   id="g60">
	<g
   id="g58">
		<path
   id="path56"
   d="M495.555,208.308h-52.077c-9.083,0-16.445,7.362-16.445,16.445c0,9.083,7.362,16.445,16.445,16.445h52.077    c9.089,0,16.445-7.362,16.445-16.445C512,215.67,504.638,208.308,495.555,208.308z" />
	</g>
</g>
<g
   id="g66">
	<g
   id="g64">
		<path
   id="path62"
   d="M495.555,270.801h-52.077c-9.083,0-16.445,7.362-16.445,16.445c0,9.083,7.362,16.445,16.445,16.445h52.077    c9.089,0,16.445-7.362,16.445-16.445C512,278.163,504.638,270.801,495.555,270.801z" />
	</g>
</g>
<g
   id="g72">
	<g
   id="g70">
		<path
   id="path68"
   d="M495.555,145.816h-52.077c-9.083,0-16.445,7.362-16.445,16.445s7.362,16.445,16.445,16.445h52.077    c9.089,0,16.445-7.362,16.445-16.445S504.638,145.816,495.555,145.816z" />
	</g>
</g>
<g
   id="g78">
	<g
   id="g76">
		<path
   id="path74"
   d="M495.555,333.293h-52.077c-9.083,0-16.445,7.362-16.445,16.445s7.362,16.445,16.445,16.445h52.077    c9.089,0,16.445-7.362,16.445-16.445C512,340.655,504.638,333.293,495.555,333.293z" />
	</g>
</g>
<g
   id="g84">
	<g
   id="g82">
		<path
   id="path80"
   d="M68.522,208.308H16.445C7.362,208.308,0,215.67,0,224.754c0,9.083,7.362,16.445,16.445,16.445h52.077    c9.083,0,16.445-7.362,16.445-16.445C84.968,215.67,77.606,208.308,68.522,208.308z" />
	</g>
</g>
<g
   id="g90">
	<g
   id="g88">
		<path
   id="path86"
   d="M68.522,270.801H16.445C7.362,270.801,0,278.163,0,287.246c0,9.083,7.362,16.445,16.445,16.445h52.077    c9.083,0,16.445-7.362,16.445-16.445C84.968,278.163,77.606,270.801,68.522,270.801z" />
	</g>
</g>
<g
   id="g96">
	<g
   id="g94">
		<path
   id="path92"
   d="M68.522,145.816H16.445C7.362,145.816,0,153.178,0,162.261s7.362,16.445,16.445,16.445h52.077    c9.083,0,16.445-7.362,16.445-16.445S77.606,145.816,68.522,145.816z" />
	</g>
</g>
<g
   id="g102">
	<g
   id="g100">
		<path
   id="path98"
   d="M68.522,333.293H16.445C7.362,333.293,0,340.655,0,349.739s7.362,16.445,16.445,16.445h52.077    c9.083,0,16.445-7.362,16.445-16.445C84.968,340.655,77.606,333.293,68.522,333.293z" />
	</g>
</g>
<g
   id="g108">
	<g
   id="g106">
		<path
   id="path104"
   d="M308.077,187.478H203.923c-9.083,0-16.445,7.362-16.445,16.445v104.154c0,9.083,7.362,16.445,16.445,16.445h104.154    c9.083,0,16.445-7.362,16.445-16.445V203.923C324.522,194.84,317.16,187.478,308.077,187.478z M291.632,291.632h-71.263v-71.263    h71.263V291.632z" />
	</g>
</g>
<g
   id="g110">
</g>
<g
   id="g112">
</g>
<g
   id="g114">
</g>
<g
   id="g116">
</g>
<g
   id="g118">
</g>
<g
   id="g120">
</g>
<g
   id="g122">
</g>
<g
   id="g124">
</g>
<g
   id="g126">
</g>
<g
   id="g128">
</g>
<g
   id="g130">
</g>
<g
   id="g132">
</g>
<g
   id="g134">
</g>
<g
   id="g136">
</g>
<g
   id="g138">
</g>
<path
   id="path147"
   d="m 103.06327,415.33767 c -3.694594,-1.84109 -6.668556,-5.21898 -8.207694,-9.32247 -1.11303,-2.96745 -1.068426,-296.60052 0.04567,-300.62489 1.092876,-3.94773 6.626064,-9.437099 10.587704,-10.50386 2.1767,-0.586123 44.31672,-0.759358 151.75969,-0.623874 l 148.74622,0.187566 3.55721,2.199295 c 2.58978,1.601166 4.11146,3.260249 5.59517,6.100383 l 2.03795,3.90108 v 148.43608 c 0,115.33741 -0.20001,149.10548 -0.89698,151.43809 -1.15778,3.87485 -5.88829,8.60536 -9.76314,9.76314 -2.33258,0.69696 -36.08817,0.89698 -151.37817,0.89698 H 106.77074 Z M 385.09402,255.63533 V 126.17664 H 255.63533 126.17664 v 129.45869 129.45869 h 129.45869 129.45869 z"
   style="fill:#a0a0a0;stroke:none;stroke-width:0.729345" /><path
   id="path149"
   d="m 10.575499,239.67081 c -3.3895083,-1.48072 -6.8438441,-4.71344 -8.4950217,-7.95001 -1.1915041,-2.33555 -1.44518573,-3.9552 -1.2262786,-7.82932 0.3421606,-6.0554 2.6514397,-9.92102 7.6992704,-12.8882 l 3.4807189,-2.04602 28.809117,-0.22017 c 33.002535,-0.25223 33.46071,-0.1941 38.724449,4.91313 8.03832,7.7993 6.100465,20.18188 -3.941561,25.18603 l -3.70747,1.84751 -29.577595,-0.0285 c -22.740387,-0.022 -30.083385,-0.2495 -31.765629,-0.9844 z"
   style="fill:#a0a0a0;stroke:none;stroke-width:0.729345" /><path
   id="path151"
   d="m 13.85755,178.00663 c -7.8010476,-1.5741 -13.12820527,-7.95306 -13.12820527,-15.72026 0,-5.05019 1.78688587,-8.772 5.90316457,-12.29538 4.6464727,-3.97721 7.1069297,-4.23256 38.3504917,-3.9802 26.627879,0.21508 27.688208,0.2774 30.504178,1.79288 3.748555,2.01736 5.745829,4.19322 7.596833,8.2761 4.122155,9.09251 -1.527831,19.65035 -11.681062,21.82783 -4.055555,0.86976 -53.305702,0.95451 -57.5454,0.099 z"
   style="fill:#a0a0a0;stroke:none;stroke-width:0.729345" /><path
   id="path153"
   d="m 11.485698,302.36681 c -11.64429486,-4.15544 -14.7198474,-19.2844 -5.5005856,-27.05795 4.7317016,-3.98971 4.7583276,-3.99262 36.5149256,-3.99262 h 29.418685 l 3.70747,1.84751 c 7.138767,3.5574 10.366162,10.9919 8.18378,18.85181 -1.045195,3.76429 -6.664249,9.33292 -10.595446,10.50035 -4.45963,1.32437 -57.962038,1.19514 -61.728829,-0.1491 z"
   style="fill:#a0a0a0;stroke:none;stroke-width:0.729345" /><path
   id="path155"
   d="m 12.686712,365.30155 c -3.6491309,-0.82057 -8.5856776,-4.90219 -10.5238338,-8.70129 -2.94249026,-5.76775 -1.44474124,-13.76832 3.422748,-18.28338 5.0526508,-4.68681 4.5789228,-4.61965 34.3640438,-4.87197 29.89469,-0.25324 33.208092,0.0596 38.090581,3.59646 3.575197,2.58987 6.549486,8.34791 6.549486,12.67943 0,3.7879 -2.802864,9.74776 -5.750868,12.22834 -4.618824,3.88648 -7.310721,4.18925 -36.486915,4.10381 -14.669074,-0.043 -28.018432,-0.38109 -29.665242,-0.7514 z"
   style="fill:#a0a0a0;stroke:none;stroke-width:0.729345" /><path
   id="path157"
   d="m 155.30339,82.598291 c -4.60875,-2.33704 -7.83986,-6.47963 -8.75711,-11.227439 -0.90826,-4.701234 -0.8279,-53.822056 0.0951,-58.125789 0.49304,-2.298946 1.7085,-4.6952581 3.36042,-6.6251575 7.91925,-9.2518661 20.8576,-7.6913339 26.74878,3.2262483 1.51761,2.8124522 1.58251,3.8792432 1.80461,29.6608532 0.14509,16.842987 -0.0579,28.318195 -0.54819,30.997151 -1.05335,5.75488 -3.83732,9.601976 -8.75196,12.094133 -5.12619,2.599428 -8.82544,2.599428 -13.95163,0 z"
   style="fill:#a0a0a0;stroke:none;stroke-width:0.729345" /><path
   id="path159"
   d="m 197.28775,322.61919 c -3.19685,-1.68236 -6.14002,-4.61435 -7.72492,-7.69555 -1.33419,-2.5938 -1.39189,-5.03689 -1.39189,-58.9308 0,-50.29469 0.12417,-56.47101 1.17728,-58.55897 1.6552,-3.28171 4.56239,-6.24265 7.72814,-7.87104 2.59379,-1.33418 5.03677,-1.39189 58.92364,-1.39189 53.88687,0 56.32985,0.0577 58.92364,1.39189 3.16575,1.62839 6.07294,4.58933 7.72814,7.87104 1.05312,2.08797 1.17728,8.26485 1.17728,58.56613 0,50.30128 -0.12416,56.47816 -1.17728,58.56613 -1.6552,3.2817 -4.56239,6.24265 -7.72814,7.87103 -2.59549,1.33506 -5.00778,1.39071 -59.07692,1.3627 -49.91018,-0.0259 -56.62171,-0.16117 -58.55897,-1.18067 z M 291.73789,256 V 220.26211 H 256 220.26211 V 256 291.73789 H 256 291.73789 Z"
   style="fill:#a0a0a0;stroke:none;stroke-width:0.729345" /><path
   id="path161"
   d="m 159.7265,511.25036 c -6.19162,-1.08729 -11.78378,-6.42743 -13.08514,-12.49542 -0.92298,-4.30374 -1.00334,-53.42456 -0.0951,-58.12579 1.35395,-7.00825 8.75475,-13.23314 15.73292,-13.23314 4.27985,0 10.44027,3.29858 12.94017,6.92878 3.2141,4.66729 3.58758,8.94069 3.3358,38.1682 -0.21046,24.43078 -0.34796,26.96423 -1.59,29.29618 -3.73225,7.00737 -10.39343,10.66326 -17.23867,9.46119 z"
   style="fill:#a0a0a0;stroke:none;stroke-width:0.729345" /><path
   id="path163"
   d="m 217.49331,509.71847 c -3.51517,-1.73997 -6.40334,-5.122 -7.86012,-9.20417 -1.34961,-3.78185 -1.47328,-57.28265 -0.14268,-61.7238 1.27805,-4.26576 6.62821,-9.57037 10.76398,-10.67234 7.47528,-1.99177 14.86998,1.20159 18.39132,7.9422 l 2.03795,3.90108 v 29.4786 c 0,31.88825 0.006,31.8322 -4.05304,36.64665 -4.30549,5.10652 -12.87327,6.73247 -19.13741,3.63178 z"
   style="fill:#a0a0a0;stroke:none;stroke-width:0.729345" /><path
   id="path165"
   d="m 280.40288,509.93893 c -3.2727,-1.5301 -6.60395,-5.09576 -8.10315,-8.67334 -0.77005,-1.8376 -0.98349,-8.73157 -0.98349,-31.76563 v -29.41868 l 1.84751,-3.70747 c 5.00415,-10.04203 17.38673,-11.97988 25.18603,-3.94157 5.10723,5.26374 5.16536,5.72192 4.91313,38.72446 l -0.22017,28.80911 -2.04602,3.48072 c -2.97715,5.0648 -6.84234,7.36941 -12.82495,7.64687 -3.56415,0.1653 -5.58993,-0.13574 -7.76889,-1.15447 z"
   style="fill:#a0a0a0;stroke:none;stroke-width:0.729345" /><path
   id="path167"
   d="m 347.16809,511.25036 c -5.07061,-0.89044 -9.34256,-4.22159 -12.13326,-9.46119 -1.24204,-2.33195 -1.37954,-4.8654 -1.59,-29.29618 -0.25178,-29.22751 0.1217,-33.50091 3.3358,-38.1682 2.48927,-3.61476 8.66582,-6.93179 12.88861,-6.92165 7.21769,0.0173 14.09519,5.80439 15.67995,13.19391 1.03826,4.84123 1.04613,53.32398 0.009,58.15789 -1.72617,8.04881 -10.23359,13.89272 -18.19055,12.49542 z"
   style="fill:#a0a0a0;stroke:none;stroke-width:0.729345" /><path
   id="path169"
   d="m 439.22729,365.07901 c -6.72549,-2.14301 -11.81703,-8.76033 -11.81703,-15.35821 0,-4.33152 2.97429,-10.08956 6.54949,-12.67943 4.88249,-3.53685 8.19589,-3.8497 38.09058,-3.59646 26.23561,0.22225 27.28814,0.28534 30.10352,1.80453 5.96425,3.21834 9.11681,8.22248 9.11681,14.47136 0,6.24888 -3.15256,11.25301 -9.11681,14.47135 -2.83102,1.52763 -3.7594,1.57877 -31.36183,1.72767 -22.34211,0.12053 -29.11385,-0.0599 -31.56473,-0.84081 z"
   style="fill:#a0a0a0;stroke:none;stroke-width:0.729345" /><path
   id="path171"
   d="m 438.35925,302.4681 c -3.88677,-1.26261 -9.20383,-6.82967 -10.24109,-10.72259 -1.99177,-7.47528 1.20159,-14.86998 7.9422,-18.39132 l 3.90108,-2.03795 h 29.4786 c 32.18802,0 31.96461,-0.0261 36.91324,4.31882 3.5526,3.11922 5.18167,7.57934 4.78275,13.09434 -0.3956,5.46919 -2.88755,9.44467 -7.6895,12.26732 l -3.48072,2.04602 -29.53846,0.12356 c -20.24341,0.0847 -30.33448,-0.13503 -32.0681,-0.6982 z"
   style="fill:#a0a0a0;stroke:none;stroke-width:0.729345" /><path
   id="path173"
   d="m 436.37381,238.83625 c -10.04203,-5.00415 -11.97988,-17.38673 -3.94157,-25.18603 5.26374,-5.10723 5.72192,-5.16536 38.72446,-4.91313 l 28.80911,0.22017 3.48072,2.04602 c 4.80195,2.82265 7.2939,6.79813 7.6895,12.26732 0.39892,5.515 -1.23015,9.97512 -4.78275,13.09434 -4.94785,4.34427 -4.73067,4.31882 -36.85332,4.31882 h -29.41868 z"
   style="fill:#a0a0a0;stroke:none;stroke-width:0.729345" /><path
   id="path175"
   d="m 439.66399,177.69545 c -4.80532,-1.32687 -8.47703,-4.38785 -10.51598,-8.76679 -2.3044,-4.94905 -2.23421,-8.71901 0.2537,-13.62527 2.25012,-4.43734 6.26463,-7.68097 10.81159,-8.73551 4.06704,-0.94323 54.09364,-0.88044 58.54164,0.0735 7.17008,1.53771 12.51572,8.21991 12.51572,15.64501 0,6.24128 -3.15535,11.24735 -9.11681,14.46419 -2.82864,1.52634 -3.77159,1.57899 -30.99715,1.73076 -21.11517,0.11771 -28.92628,-0.0772 -31.49271,-0.78587 z"
   style="fill:#a0a0a0;stroke:none;stroke-width:0.729345" /><path
   id="path177"
   d="m 342.74498,82.598291 c -4.91464,-2.492157 -7.69861,-6.339253 -8.75196,-12.094133 -0.49034,-2.678956 -0.69328,-14.154164 -0.54819,-30.997151 0.2221,-25.78161 0.287,-26.848401 1.80461,-29.6608532 3.18296,-5.8986878 8.39389,-9.22100114 14.46282,-9.22100114 7.27493,0 14.12476,5.52487814 15.64638,12.61991034 1.03668,4.833905 1.02881,53.316658 -0.009,58.157887 -1.10392,5.147424 -4.33977,9.289198 -8.92543,11.424245 -5.00176,2.328784 -8.75889,2.265914 -13.67878,-0.228904 z"
   style="fill:#a0a0a0;stroke:none;stroke-width:0.729345" /><path
   id="path179"
   d="m 281.16239,83.228131 c -3.93129,-1.810861 -6.71046,-4.55009 -8.40574,-8.284919 -1.316,-2.899256 -1.40943,-5.029675 -1.42439,-32.482307 -0.0173,-31.721148 -0.0151,-31.741793 3.9766,-36.4757926 3.32081,-3.9384156 7.09917,-5.4530201 12.79966,-5.1309137 6.0554,0.3421606 9.92102,2.6514397 12.8882,7.6992704 l 2.04602,3.4807189 0.22017,28.809117 c 0.25349,33.166682 0.20249,33.56133 -5.01073,38.774548 -5.00252,5.002524 -11.21714,6.315381 -17.08979,3.610278 z"
   style="fill:#a0a0a0;stroke:none;stroke-width:0.729345" /><path
   id="path181"
   d="m 219.16809,83.556701 c -3.79557,-1.38189 -8.6557,-6.729146 -9.77537,-10.75515 -0.63202,-2.272549 -0.81452,-11.168334 -0.65563,-31.958246 l 0.22017,-28.809117 2.04602,-3.4807189 c 2.96718,-5.0478307 6.8328,-7.3571098 12.8882,-7.6992704 5.70049,-0.3221064 9.47885,1.1924981 12.79966,5.1309137 3.99034,4.7324486 3.99262,4.7533496 3.99262,36.5748436 v 29.478602 l -2.03795,3.901085 c -3.66536,7.016296 -12.08457,10.308763 -19.47772,7.617058 z"
   style="fill:#74c3e4;stroke:none;stroke-width:0.729345;fill-opacity:1" /><path
   id="path1006"
   d="m 156.80912,82.861693 c -3.36574,-1.470337 -6.82628,-4.694113 -8.60179,-8.013266 -1.57921,-2.952206 -1.60904,-3.528543 -1.60904,-31.087743 0,-15.443875 0.26806,-29.348017 0.59568,-30.898095 1.39381,-6.5944731 10.61992,-12.89264768 17.2463,-11.7731286 3.67103,0.6202178 8.65141,3.9544121 10.89676,7.2950217 2.47631,3.6842199 3.14148,13.1395679 2.84782,40.4816149 -0.22266,20.731545 -0.34253,22.469952 -1.76184,25.551156 -3.4799,7.554567 -12.63161,11.494684 -19.61389,8.44444 z"
   style="fill:#74c3e4;fill-opacity:1;stroke-width:0.729345" /><path
   id="path1008"
   d="m 9.7583634,175.92216 c -9.33660851,-4.8775 -11.3708756,-16.74723 -4.1380592,-24.14513 4.8693858,-4.98052 3.588425,-4.81407 37.0463628,-4.81407 h 30.267806 l 3.318759,1.9511 c 3.5027,2.05924 6.626119,6.7473 7.617357,11.43317 1.288759,6.09239 -4.425803,14.76291 -11.020735,16.72139 -2.138433,0.63504 -11.083654,0.89149 -31.096201,0.89149 H 13.659447 Z"
   style="fill:#74c3e4;fill-opacity:1;stroke-width:0.729345" /><path
   id="path1010"
   d="m 29.403507,240.86697 c 7.346858,-0.11907 19.162243,-0.11887 26.25641,4.3e-4 7.094168,0.1193 1.083103,0.21672 -13.357923,0.21648 -14.441025,-2.3e-4 -20.245344,-0.0978 -12.898487,-0.21691 z"
   style="fill:#74c3e4;fill-opacity:1;stroke-width:0.729345" /><path
   id="path1012"
   d="m 10.000605,175.58877 c -5.2253466,-3.3397 -7.6098409,-6.84199 -8.01921,-11.77844 -0.4370137,-5.26982 0.6989626,-8.29502 4.5247154,-12.04971 2.3003509,-2.25762 4.0989786,-3.31821 6.3722326,-3.75746 1.741983,-0.3366 15.901488,-0.62629 31.465569,-0.64376 31.335683,-0.0352 30.415141,-0.16227 34.772961,4.80101 5.742904,6.54081 5.857098,13.3429 0.333981,19.89362 -4.168978,4.94464 -4.746852,5.03169 -36.784187,5.54145 l -28.809117,0.45839 z"
   style="fill:#74c3e4;fill-opacity:1;stroke-width:0.729345" /><path
   id="path1014"
   d="m 9.8461538,175.51064 c -2.2062678,-1.42369 -4.806661,-3.77357 -5.7786516,-5.22196 -2.0737687,-3.09017 -2.8213817,-9.1559 -1.5887993,-12.89066 1.2662,-3.83662 6.6078566,-8.66218 10.3996401,-9.39486 1.741983,-0.3366 15.901488,-0.62629 31.465569,-0.64376 31.024129,-0.0348 30.146158,-0.1482 34.570692,4.46441 5.878008,6.12788 6.077608,13.65786 0.53625,20.23022 -4.165382,4.94038 -4.752957,5.02926 -36.784187,5.5641 l -28.809117,0.48105 z"
   style="fill:#74c3e4;fill-opacity:1;stroke-width:0.729345" /><path
   id="path1016"
   d="m 11.201936,176.55622 c -6.047785,-3.3405 -9.3785742,-8.38578 -9.3785742,-14.20611 0,-5.44857 2.6225474,-10.02872 7.557686,-13.19911 2.1600802,-1.38766 3.7248462,-1.46977 32.1355632,-1.68616 16.425706,-0.12511 30.632863,-0.0347 31.57146,0.20085 2.567288,0.64435 7.559062,5.48053 9.061191,8.77875 2.428251,5.33173 1.51552,10.61164 -2.698408,15.60959 -4.293338,5.09214 -5.021195,5.20254 -36.965978,5.60677 -27.674291,0.35019 -28.715734,0.31342 -31.28294,-1.10458 z"
   style="fill:#74c3e4;fill-opacity:1;stroke-width:0.729345" /><path
   id="path1018"
   d="m 11.669516,176.78811 c -4.4264863,-2.5058 -6.8931708,-4.85801 -8.4354755,-8.04398 -3.25540072,-6.72476 -0.6651498,-15.39221 5.8018289,-19.41398 2.6006976,-1.61735 3.0071636,-1.64069 32.4896546,-1.86531 16.420804,-0.12511 30.62395,-0.0347 31.562547,0.20085 2.567288,0.64435 7.559062,5.48053 9.061191,8.77875 3.312071,7.27235 -0.294582,16.1022 -7.962606,19.49413 -2.905204,1.28511 -5.576433,1.43197 -31.750591,1.74566 -25.933039,0.3108 -28.781059,0.22785 -30.766549,-0.89612 z"
   style="fill:#74c3e4;fill-opacity:1;stroke-width:0.729345" /><path
   id="path1020"
   d="m 29.173789,239.98448 c -11.929973,-0.25827 -18.73791,-0.68996 -19.6923075,-1.24868 -2.4042878,-1.40752 -6.7882948,-6.29701 -7.6146961,-8.49268 -2.54660662,-6.76611 0.5680815,-14.8797 7.3574015,-19.16561 l 2.7810141,-1.75557 29.005946,0.004 c 18.956797,0.003 30.016677,0.28387 31.923326,0.8117 4.061961,1.1245 9.435752,6.62105 10.561882,10.80317 1.869762,6.94377 -1.202077,13.52492 -8.181089,17.5273 L 71.475783,240.67 59.441595,240.52457 c -6.618803,-0.08 -20.239316,-0.32306 -30.267806,-0.54016 z"
   style="fill:#74c3e4;fill-opacity:1;stroke-width:0.729345" /><path
   id="path1022"
   d="m 23.648416,302.76835 c -11.61095,-0.43695 -12.209733,-0.5346 -15.1276755,-2.46688 -6.4108984,-4.24536 -9.27109224,-12.84387 -6.3323624,-19.03679 1.7110496,-3.60577 6.0214267,-7.64279 9.0544709,-8.48025 1.377159,-0.38025 15.492952,-0.89213 31.36843,-1.1375 l 28.864504,-0.44613 3.783236,2.23433 c 9.664233,5.7076 11.701592,15.84558 4.738027,23.57665 -4.636379,5.14739 -6.146487,5.48329 -26.390208,5.87009 -9.827921,0.18779 -23.30921,0.1367 -29.958422,-0.11352 z"
   style="fill:#74c3e4;fill-opacity:1;stroke-width:0.729345" /><path
   id="path1024"
   d="m 11.75374,364.34765 c -3.3240174,-1.20792 -7.9547917,-5.50036 -9.5417359,-8.8446 -1.67742505,-3.53491 -1.40039279,-8.21118 0.7410266,-12.50845 2.3245973,-4.66486 5.736106,-7.31436 10.6075703,-8.23821 5.106077,-0.96835 53.567273,-0.92969 58.118443,0.0464 4.613726,0.98947 8.645653,4.35377 10.82387,9.03161 2.278954,4.89416 2.181674,7.31509 -0.510403,12.70242 -1.768296,3.53866 -2.972123,4.92264 -5.652421,6.49826 l -3.405617,2.002 -29.173789,0.17008 c -23.621429,0.1377 -29.712996,-0.0259 -32.006944,-0.85947 z"
   style="fill:#74c3e4;fill-opacity:1;stroke-width:0.729345" /><path
   id="path1026"
   d="m 103.93162,415.29567 c -4.372101,-2.49366 -5.694948,-3.75939 -7.553389,-7.22729 L 94.814815,405.151 V 256.36467 c 0,-81.83248 0.257275,-149.70829 0.571723,-150.83513 0.761723,-2.72968 6.137452,-8.496474 9.068672,-9.728375 1.94703,-0.81828 27.85883,-0.983269 152.06837,-0.968269 l 149.72143,0.01808 3.45064,2.531731 c 2.18357,1.602082 4.13931,3.890773 5.32612,6.232833 l 1.87549,3.7011 -0.22071,149.33538 -0.22071,149.33538 -1.977,2.98718 c -1.08734,1.64294 -3.19472,3.91629 -4.68307,5.05188 l -2.70608,2.06471 -64.60468,0.45441 c -35.53256,0.24993 -103.00467,0.49213 -149.938,0.53823 l -85.33333,0.0838 z M 385.45869,255.63533 V 126.17664 H 255.63533 125.81197 v 129.45869 129.45869 h 129.82336 129.82336 z"
   style="fill:#74c3e4;fill-opacity:1;stroke-width:0.729345" /><path
   id="path1028"
   d="m 197.65242,322.08547 c -2.81455,-1.23122 -7.5634,-6.11517 -8.23303,-8.46724 -0.67805,-2.38166 -0.67805,-112.8548 0,-115.23646 0.70497,-2.47621 5.47392,-7.26226 8.5977,-8.62853 2.21667,-0.96952 9.80162,-1.11872 57.61824,-1.13338 41.38486,-0.0127 55.70962,0.20361 57.65807,0.87065 1.4259,0.48814 4.0269,2.34904 5.78,4.13532 2.65065,2.70081 3.27985,3.89682 3.73598,7.10158 0.71508,5.02405 0.71559,105.51767 5.7e-4,110.5408 -0.43992,3.09042 -1.1125,4.43736 -3.41115,6.83133 -5.07957,5.2902 -1.41197,5.00331 -63.55771,4.97163 -44.57209,-0.0227 -56.44717,-0.22389 -58.18867,-0.9857 z M 292.10256,256 V 220.26211 H 256 219.89744 V 256 291.73789 H 256 292.10256 Z"
   style="fill:#74c3e4;fill-opacity:1;stroke-width:0.729345" /><path
   id="path1030"
   d="m 157.67252,510.25245 c -4.39001,-1.62636 -8.6188,-5.76415 -10.14017,-9.92197 -0.70033,-1.91394 -0.93406,-9.76154 -0.93406,-31.36182 0,-28.10051 0.0386,-28.88087 1.57005,-31.72649 3.00057,-5.57551 8.31284,-9.11001 13.69825,-9.11409 6.77052,-0.005 13.21444,4.72014 15.15115,11.11021 1.33043,4.38966 1.32345,57.36788 -0.008,61.17752 -1.01253,2.89699 -5.21359,7.48982 -8.33614,9.11354 -3.01962,1.57019 -7.85634,1.88812 -11.00102,0.7231 z"
   style="fill:#74c3e4;fill-opacity:1;stroke-width:0.729345" /><path
   id="path1032"
   d="m 218.43875,509.76132 c -2.6091,-1.09086 -5.71843,-4.22694 -7.54258,-7.60747 -1.53971,-2.85341 -1.57423,-3.57312 -1.57423,-32.82052 0,-33.66004 -0.27672,-31.85003 5.71328,-37.37141 7.24395,-6.67724 18.26923,-4.50727 23.26113,4.57818 l 1.98866,3.61944 -0.0264,27.35043 c -0.0145,15.04274 -0.28028,28.89117 -0.59053,30.7743 -0.67304,4.08517 -3.0189,7.73359 -6.51112,10.1265 -2.00734,1.37546 -3.65809,1.78817 -7.72389,1.93111 -2.844,0.1 -5.99143,-0.16127 -6.99428,-0.58056 z"
   style="fill:#74c3e4;fill-opacity:1;stroke-width:0.729345" /><path
   id="path1034"
   d="m 280.79772,509.69375 c -2.34373,-1.29054 -6.2239,-5.17169 -7.53801,-7.5399 -1.06551,-1.92021 -1.24186,-5.81904 -1.44069,-31.85119 -0.22322,-29.22434 -0.20312,-29.70986 1.35866,-32.82051 3.18155,-6.33683 7.64188,-9.35679 13.81947,-9.35679 4.33031,0 8.09278,1.71768 11.44245,5.22383 4.17501,4.37006 4.17157,4.34208 4.44976,36.19664 l 0.25663,29.38629 -1.80992,3.06956 c -2.22158,3.7677 -5.28053,6.73465 -8.00463,7.76388 -2.66434,1.00666 -10.65831,0.96086 -12.53372,-0.0718 z"
   style="fill:#74c3e4;fill-opacity:1;stroke-width:0.729345" /><path
   id="path1036"
   d="m 345.81768,510.5593 c -3.25515,-1.03424 -6.88278,-3.77465 -8.99012,-6.79138 -1.6634,-2.38121 -2.02022,-3.88955 -2.5881,-10.94018 -0.89803,-11.14954 -0.29216,-50.40361 0.83291,-53.96449 1.92314,-6.08674 8.464,-10.73789 15.10058,-10.73789 5.95724,0 12.09208,4.6427 14.27556,10.8034 1.36186,3.84252 1.37217,57.66799 0.0118,61.5028 -1.07403,3.02757 -5.03867,7.39368 -8.19681,9.02681 -2.74284,1.41838 -7.7768,1.94893 -10.44579,1.10093 z"
   style="fill:#74c3e4;fill-opacity:1;stroke-width:0.729345" /><path
   id="path1038"
   d="m 438.80817,364.58203 c -5.27806,-1.55316 -11.06386,-9.57677 -11.04036,-15.31052 0.0122,-2.96622 3.31787,-9.02547 6.23649,-11.43124 4.37251,-3.6042 7.35019,-3.89005 38.03338,-3.6512 l 27.68088,0.21549 3.55576,2.19929 c 4.89322,3.02654 7.88838,8.61448 7.4629,13.92323 -0.41395,5.16494 -3.35197,9.93421 -7.69108,12.48487 l -3.445,2.02509 -29.17379,0.13229 c -17.46687,0.0792 -30.15508,-0.15646 -31.61918,-0.5873 z"
   style="fill:#74c3e4;fill-opacity:1;stroke-width:0.729345" /><path
   id="path1040"
   d="m 437.60684,301.53521 c -5.45189,-2.82525 -9.80536,-9.10677 -9.82301,-14.17339 -0.0126,-3.60311 3.02301,-9.6846 5.91546,-11.8511 6.1757,-4.62572 4.74954,-4.47046 35.99872,-3.9189 15.64444,0.27614 29.63512,0.82126 31.09039,1.21138 3.25101,0.87152 8.11056,5.9465 9.38145,9.79732 1.13489,3.43873 0.53441,9.19314 -1.28429,12.30748 -0.73872,1.26499 -2.96582,3.52909 -4.94911,5.03135 l -3.60597,2.73136 -30.2678,-8.1e-4 c -25.95194,-7.1e-4 -30.5798,-0.1625 -32.45584,-1.13469 z"
   style="fill:#74c3e4;fill-opacity:1;stroke-width:0.729345" /><path
   id="path1042"
   d="m 436.68473,238.53241 c -9.86479,-5.82238 -11.61331,-16.08633 -4.1074,-24.11075 2.3496,-2.51192 4.15011,-3.70556 6.47111,-4.28999 2.08736,-0.52561 13.34431,-0.80973 32.08104,-0.80973 h 28.86532 l 2.78102,1.75557 c 9.20074,5.80818 10.78383,16.42533 3.60964,24.2084 -1.79883,1.9515 -3.98423,3.47752 -5.59706,3.90831 -1.45527,0.3887 -15.61005,0.90869 -31.45507,1.15553 l -28.80911,0.4488 z"
   style="fill:#74c3e4;fill-opacity:1;stroke-width:0.729345" /><path
   id="path1044"
   d="m 438.87508,177.0026 c -5.7208,-2.1134 -11.10015,-9.24864 -11.10015,-14.7234 0,-2.92615 2.94887,-9.01351 5.54593,-11.44849 4.45148,-4.17365 4.95508,-4.23242 36.27044,-4.23242 h 28.74925 l 3.90109,2.03795 c 10.84548,5.66575 11.41172,20.34046 1.03255,26.75991 l -3.55589,2.19929 -29.23237,0.14291 c -21.31054,0.10418 -29.87693,-0.0952 -31.61085,-0.73575 z"
   style="fill:#74c3e4;fill-opacity:1;stroke-width:0.729345" /><path
   id="path1046"
   d="m 344.25071,82.861693 c -3.60614,-1.575355 -7.05726,-4.935249 -8.67372,-8.44444 -1.41932,-3.081204 -1.53918,-4.819611 -1.76184,-25.551156 -0.13141,-12.234758 0.0615,-25.765409 0.4287,-30.068113 0.58004,-6.79691 0.93858,-8.21411 2.73334,-10.8039479 5.65947,-8.16661823 16.53045,-9.1409948 23.55976,-2.1116845 4.83622,4.8362194 4.86476,5.0498644 4.86476,36.4196424 0,30.727804 -0.0943,31.529777 -4.26468,36.279613 -4.16352,4.741988 -11.54577,6.613129 -16.88632,4.280086 z"
   style="fill:#74c3e4;fill-opacity:1;stroke-width:0.729345" /><path
   id="path1048"
   d="m 281.91353,83.063182 c -3.21018,-1.281174 -6.56167,-4.307947 -8.23365,-7.435917 -1.58859,-2.971964 -1.64097,-3.771316 -1.8729,-28.58453 -0.28993,-31.018593 -0.009,-34.97072 2.77611,-39.1183251 3.03599,-4.5204925 6.68815,-6.4574309 12.18424,-6.4619837 7.19582,-0.00596 10.76529,2.085411 14.56874,8.5358996 l 1.80992,3.0695512 -0.25663,29.386289 c -0.27819,31.85456 -0.27475,31.82659 -4.44976,36.196641 -4.50011,4.710334 -11.25829,6.514733 -16.52607,4.412375 z"
   style="fill:#74c3e4;fill-opacity:1;stroke-width:0.729345" /></svg>
