<?xml version="1.0" encoding="UTF-8" standalone="no"?>
<svg
   xmlns:dc="http://purl.org/dc/elements/1.1/"
   xmlns:cc="http://creativecommons.org/ns#"
   xmlns:rdf="http://www.w3.org/1999/02/22-rdf-syntax-ns#"
   xmlns:svg="http://www.w3.org/2000/svg"
   xmlns="http://www.w3.org/2000/svg"
   xmlns:sodipodi="http://sodipodi.sourceforge.net/DTD/sodipodi-0.dtd"
   xmlns:inkscape="http://www.inkscape.org/namespaces/inkscape"
   inkscape:version="1.0 (4035a4fb49, 2020-05-01)"
   sodipodi:docname="ram.svg"
   version="1.1"
   width="512"
   viewBox="0 0 512 512"
   height="512"
   enable-background="new 0 0 512 512"
   id="Capa_1">
  <metadata
     id="metadata11">
    <rdf:RDF>
      <cc:Work
         rdf:about="">
        <dc:format>image/svg+xml</dc:format>
        <dc:type
           rdf:resource="http://purl.org/dc/dcmitype/StillImage" />
      </cc:Work>
    </rdf:RDF>
  </metadata>
  <defs
     id="defs9" />
  <sodipodi:namedview
     inkscape:current-layer="Capa_1"
     inkscape:window-maximized="0"
     inkscape:window-y="47"
     inkscape:window-x="20"
     inkscape:cy="254.90598"
     inkscape:cx="256"
     inkscape:zoom="1.3710938"
     showgrid="false"
     id="namedview7"
     inkscape:window-height="1013"
     inkscape:window-width="1880"
     inkscape:pageshadow="2"
     inkscape:pageopacity="0"
     guidetolerance="10"
     gridtolerance="10"
     objecttolerance="10"
     borderopacity="1"
     bordercolor="#666666"
     pagecolor="#ffffff" />
  <g
     id="g4">
    <path
       id="path2"
       d="m424 303c8.284 0 15-6.716 15-15v-17h25c8.284 0 15-6.716 15-15s-6.716-15-15-15h-25v-17c0-8.284-6.716-15-15-15h-49v-42h49c8.284 0 15-6.716 15-15v-17h25c8.284 0 15-6.716 15-15s-6.716-15-15-15h-25v-17c0-8.284-6.716-15-15-15h-49v-43c0-16.542-13.458-30-30-30h-178c-16.542 0-30 13.458-30 30v43h-49c-8.284 0-15 6.716-15 15v17h-25c-8.284 0-15 6.716-15 15s6.716 15 15 15h25v17c0 8.284 6.716 15 15 15h49v42h-49c-8.284 0-15 6.716-15 15v17h-25c-8.284 0-15 6.716-15 15s6.716 15 15 15h25v17c0 8.284 6.716 15 15 15h49v42h-49c-8.284 0-15 6.716-15 15v17h-25c-8.284 0-15 6.716-15 15s6.716 15 15 15h25v17c0 8.284 6.716 15 15 15h49v43c0 16.542 13.458 30 30 30h178c16.542 0 30-13.458 30-30v-43h49c8.284 0 15-6.716 15-15v-17h25c8.284 0 15-6.716 15-15s-6.716-15-15-15h-25v-17c0-8.284-6.716-15-15-15h-49v-42zm-15-64v34h-34v-34zm0-136v34h-34v-34zm-306 34v-34h34v34zm0 136v-34h34v34zm0 136v-34h34v34zm242 73h-178c0-21.187 0-423.058 0-452h178c.02 462.801.1 452 0 452zm64-107v34h-34v-34z" />
  </g>
  <path
     id="path836"
     d="m 163.26692,511.27935 c -12.39314,-1.59332 -23.02947,-11.83994 -25.35638,-24.42735 -0.46008,-2.48878 -0.79373,-13.57767 -0.79373,-26.37938 v -22.0857 l -27.22588,-0.20771 -27.22587,-0.2077 -2.626405,-2.00403 c -5.554858,-4.23852 -5.983197,-5.46448 -6.243842,-17.87061 l -0.233677,-11.12251 h -12.31162 c -14.47545,0 -18.812626,-0.74444 -22.330042,-3.83277 -6.899382,-6.05774 -7.201387,-14.73441 -0.749452,-21.53194 3.555468,-3.74592 7.484082,-4.53842 22.497967,-4.53842 h 12.995829 v -10.23426 c 0,-11.44273 0.542278,-13.5352 4.471436,-17.25378 4.375286,-4.14079 4.642004,-4.17685 32.907486,-4.45004 l 26.07407,-0.25201 v -21.06797 -21.06796 l -26.92424,-0.21591 -26.924231,-0.21591 -3.155047,-2.21837 c -1.735275,-1.2201 -3.890893,-3.51754 -4.790262,-5.10541 -1.487757,-2.6267 -1.636299,-3.85716 -1.647215,-13.64488 l -0.012,-10.75784 H 59.191637 c -13.742446,0 -14.634262,-0.0856 -17.686609,-1.69701 -1.767936,-0.93337 -4.199045,-3.09497 -5.402464,-4.80357 C 34.188385,261.36858 33.91453,260.35649 33.91453,256 c 0,-4.35649 0.273855,-5.36858 2.188034,-8.08631 1.203419,-1.7086 3.634528,-3.8702 5.402464,-4.80357 3.052347,-1.61145 3.944163,-1.69701 17.686609,-1.69701 h 14.472181 l 0.012,-10.75784 c 0.01092,-9.78772 0.159458,-11.01818 1.647215,-13.64488 0.899369,-1.58787 3.054987,-3.88531 4.790262,-5.10541 l 3.155047,-2.21837 26.924228,-0.21591 26.92424,-0.21591 v -21.06796 -21.06797 l -26.07407,-0.23471 c -28.831372,-0.25953 -28.978235,-0.28173 -33.505126,-5.06499 -3.429986,-3.62422 -3.873793,-5.54058 -3.873793,-16.72704 V 134.92877 H 60.667989 c -15.013885,0 -18.942499,-0.7925 -22.497967,-4.53842 -6.451935,-6.79753 -6.14993,-15.4742 0.749452,-21.53194 3.519807,-3.09043 7.854694,-3.83277 22.381382,-3.83277 H 73.663818 V 94.791388 c 0,-7.084905 0.309895,-10.956464 1.007048,-12.581196 1.227277,-2.860191 5.190185,-6.722414 7.974905,-7.772299 1.308763,-0.493423 11.555669,-0.774075 28.262109,-0.774075 h 26.20893 V 51.552754 c 0,-12.820004 0.33353,-23.915273 0.79373,-26.404762 2.3871,-12.913015 12.86939,-22.7710936 26.01539,-24.46619726 6.41775,-0.82753268 177.73039,-0.82753268 184.14814,0 13.146,1.69510366 23.62829,11.55318226 26.01539,24.46619726 0.46008,2.488794 0.79373,13.577674 0.79373,26.379393 v 22.085692 l 27.16809,0.20771 c 27.09075,0.207112 27.17485,0.212517 29.54013,1.899586 1.30463,0.930527 3.27386,2.872954 4.37607,4.316488 1.95475,2.560073 2.00978,2.899583 2.2377,13.806693 l 0.23369,11.182086 h 12.31161 c 14.47545,0 18.81263,0.74444 22.33004,3.83277 6.89939,6.05774 7.20139,14.73441 0.74946,21.53194 -3.55547,3.74592 -7.48409,4.53842 -22.49797,4.53842 h -12.99583 v 10.23426 c 0,11.44273 -0.54227,13.5352 -4.47144,17.25378 -4.37528,4.14079 -4.642,4.17685 -32.90748,4.45004 l -26.07407,0.25201 v 21.06797 21.06796 l 26.92424,0.21591 26.92423,0.21591 3.15505,2.21837 c 1.73527,1.2201 3.89089,3.51754 4.79026,5.10541 1.48776,2.6267 1.6363,3.85716 1.64721,13.64488 l 0.012,10.75784 h 14.47219 c 13.74244,0 14.63425,0.0856 17.68661,1.69701 1.76793,0.93337 4.19904,3.09497 5.40246,4.80357 1.91418,2.71773 2.18803,3.72982 2.18803,8.08631 0,4.35649 -0.27385,5.36858 -2.18803,8.08631 -1.20342,1.7086 -3.63453,3.8702 -5.40246,4.80357 -3.05236,1.61145 -3.94417,1.69701 -17.68661,1.69701 h -14.47219 l -0.012,10.75784 c -0.0109,9.78772 -0.15946,11.01818 -1.64722,13.64488 -0.89936,1.58787 -3.05498,3.88531 -4.79025,5.10541 l -3.15509,2.21837 -26.92423,0.21591 -26.92424,0.21591 v 21.06796 21.06797 l 26.07407,0.25201 c 28.26548,0.27319 28.5322,0.30925 32.90748,4.45004 3.92917,3.71858 4.47144,5.81105 4.47144,17.25378 v 10.23426 h 12.99583 c 15.01388,0 18.9425,0.7925 22.49797,4.53842 6.45193,6.79753 6.14993,15.4742 -0.74946,21.53194 -3.51741,3.08833 -7.85459,3.83277 -22.33004,3.83277 h -12.31161 l -0.23369,11.12251 c -0.26064,12.40613 -0.68898,13.63209 -6.24384,17.87061 l -2.6264,2.00403 -27.22587,0.2077 -27.22588,0.20771 v 22.0857 c 0,12.80171 -0.33365,23.8906 -0.79373,26.37938 -2.3871,12.91302 -12.86939,22.7711 -26.01539,24.46621 -5.88118,0.75834 -178.8893,0.72197 -184.80715,-0.0389 z M 345.7094,256 V 29.903134 H 256 166.2906 V 256 482.09687 H 256 345.7094 Z M 137.11681,392.02279 v -17.1396 h -17.1396 -17.1396 v 17.1396 17.1396 h 17.1396 17.1396 z m 272.04558,0 v -17.1396 h -17.1396 -17.1396 v 17.1396 17.1396 h 17.1396 17.1396 z M 137.11681,256 v -17.50427 h -17.1396 -17.1396 V 256 273.50427 h 17.1396 17.1396 z m 272.04558,0 v -17.50427 h -17.1396 -17.1396 V 256 273.50427 h 17.1396 17.1396 z M 137.11681,119.97721 v -17.1396 h -17.1396 -17.1396 v 17.1396 17.1396 h 17.1396 17.1396 z m 272.04558,0 v -17.1396 h -17.1396 -17.1396 v 17.1396 17.1396 h 17.1396 17.1396 z"
     style="fill:#74c3e4;stroke-width:0.729345" />
</svg>
