<?xml version="1.0" encoding="UTF-8" standalone="no"?>
<svg
   xmlns:dc="http://purl.org/dc/elements/1.1/"
   xmlns:cc="http://creativecommons.org/ns#"
   xmlns:rdf="http://www.w3.org/1999/02/22-rdf-syntax-ns#"
   xmlns:svg="http://www.w3.org/2000/svg"
   xmlns="http://www.w3.org/2000/svg"
   xmlns:sodipodi="http://sodipodi.sourceforge.net/DTD/sodipodi-0.dtd"
   xmlns:inkscape="http://www.inkscape.org/namespaces/inkscape"
   inkscape:version="1.0 (4035a4fb49, 2020-05-01)"
   sodipodi:docname="speaker.svg"
   xml:space="preserve"
   style="enable-background:new 0 0 512.035 512.035;"
   viewBox="0 0 512.035 512.035"
   y="0px"
   x="0px"
   id="Capa_1"
   version="1.1"><metadata
   id="metadata49"><rdf:RDF><cc:Work
       rdf:about=""><dc:format>image/svg+xml</dc:format><dc:type
         rdf:resource="http://purl.org/dc/dcmitype/StillImage" /></cc:Work></rdf:RDF></metadata><defs
   id="defs47" /><sodipodi:namedview
   inkscape:current-layer="Capa_1"
   inkscape:window-maximized="0"
   inkscape:window-y="47"
   inkscape:window-x="20"
   inkscape:cy="256.01749"
   inkscape:cx="256.01749"
   inkscape:zoom="1.3710001"
   showgrid="false"
   id="namedview45"
   inkscape:window-height="1013"
   inkscape:window-width="1880"
   inkscape:pageshadow="2"
   inkscape:pageopacity="0"
   guidetolerance="10"
   gridtolerance="10"
   objecttolerance="10"
   borderopacity="1"
   bordercolor="#666666"
   pagecolor="#ffffff" />
<path
   id="path2"
   d="M297.62,18.705c-5.907-2.868-12.974-2.049-18.095,2.049L113.489,153.602H34.142  C15.296,153.602,0,168.897,0,187.744v136.57c0,18.847,15.296,34.142,34.142,34.142h79.347l166.035,132.848  c5.156,4.097,12.189,4.882,18.095,2.014c5.907-2.834,9.662-8.809,9.662-15.364V34.103C307.282,27.548,303.526,21.573,297.62,18.705z  "
   style="fill:#455A64;" />
<path
   id="path4"
   d="M119.499,358.456H34.142C15.296,358.456,0,343.16,0,324.314v-136.57c0-18.847,15.296-34.142,34.142-34.142h85.356  c9.423,0,17.071,7.648,17.071,17.071v170.712C136.57,350.808,128.922,358.456,119.499,358.456z M34.142,187.744v136.57h68.285  v-136.57H34.142z" />
<path
   id="path6"
   d="M290.211,495.026c-3.858,0-7.614-1.297-10.652-3.722l-170.712-136.57c-7.375-5.872-8.57-16.627-2.697-24.002  c5.873-7.375,16.627-8.57,24.002-2.697l0,0l142.989,114.377V69.645L130.151,184.022c-7.375,5.907-18.13,4.678-24.002-2.697  s-4.678-18.095,2.697-24.002l0,0l170.712-136.57c7.375-5.872,18.095-4.678,24.002,2.697c2.424,3.039,3.722,6.794,3.722,10.652  v443.852C307.282,487.378,299.634,495.026,290.211,495.026z" />
<g
   id="g12">
	<path
   id="path8"
   d="M381.712,381.673c-9.423-0.034-17.071-7.682-17.037-17.105c0-4.541,1.844-8.877,5.053-12.086   c53.262-53.228,53.331-139.54,0.102-192.802c-0.034-0.034-0.068-0.068-0.102-0.102c-6.248-7.033-5.633-17.822,1.434-24.105   c6.385-5.668,15.979-5.736,22.466-0.171c66.68,66.475,66.851,174.4,0.376,241.08c-0.137,0.137-0.239,0.239-0.376,0.376   C390.453,379.898,386.185,381.673,381.712,381.673z"
   style="fill:#FFC107;" />
	<path
   id="path10"
   d="M429.853,429.814c-9.423,0-17.071-7.648-17.071-17.071c0-4.541,1.81-8.911,5.053-12.121   c79.859-79.347,80.269-208.405,0.922-288.265c-0.307-0.307-0.615-0.615-0.922-0.922c-7.204-6.077-8.126-16.832-2.014-24.036   c6.111-7.204,16.866-8.126,24.07-2.014c0.683,0.58,1.297,1.195,1.878,1.844c93.243,92.628,93.755,243.299,1.127,336.542   c-0.376,0.376-0.751,0.751-1.127,1.127C438.56,428.004,434.292,429.78,429.853,429.814z"
   style="fill:#FFC107;" />
</g>
<g
   id="g14">
</g>
<g
   id="g16">
</g>
<g
   id="g18">
</g>
<g
   id="g20">
</g>
<g
   id="g22">
</g>
<g
   id="g24">
</g>
<g
   id="g26">
</g>
<g
   id="g28">
</g>
<g
   id="g30">
</g>
<g
   id="g32">
</g>
<g
   id="g34">
</g>
<g
   id="g36">
</g>
<g
   id="g38">
</g>
<g
   id="g40">
</g>
<g
   id="g42">
</g>
<path
   id="path874"
   d="m 284.02565,493.48783 c -1.24395,-0.54152 -40.06027,-31.21795 -86.2585,-68.16985 l -83.99679,-67.18526 -41.385544,-0.0108 C 27.264391,358.11012 25.470805,357.97166 17.963153,353.91936 8.9639607,349.06197 2.134923,338.8638 0.75383444,328.21974 c -0.94097586,-7.2521 -0.94097586,-137.15244 0,-144.40455 C 2.13567,173.1654 8.932666,163.04721 18.031734,158.09488 c 7.398309,-4.02667 9.262849,-4.1701 54.360938,-4.18185 l 41.393398,-0.0108 83.98524,-67.185442 c 46.19188,-36.951993 85.07619,-67.641268 86.40957,-68.19839 8.19945,-3.425949 18.68703,1.600327 21.85356,10.473534 1.45346,4.072856 1.45346,449.978218 0,454.051068 -3.17146,8.88703 -13.89587,13.97655 -22.00879,10.44481 z M 273.34337,162.58226 273.15826,69.147021 204.81567,123.742 136.47309,178.33697 v 77.68052 77.68052 l 68.34258,54.59497 68.34259,54.59497 0.18511,-93.43523 c 0.10181,-51.38938 0.10181,-135.48109 0,-186.87046 z M 102.84463,256.01749 V 187.4544 H 68.19839 33.552149 v 68.56309 68.56308 h 34.646241 34.64624 z"
   style="fill:#74c3e4;stroke-width:0.729395" /><path
   id="path876"
   d="m 425.96169,428.93189 c -7.70512,-2.3438 -12.63257,-8.62376 -12.62828,-16.09458 0.003,-5.49608 2.05548,-9.18872 9.31174,-16.75413 29.34125,-30.59131 48.01292,-70.11345 54.11133,-114.53688 1.52891,-11.13726 1.72557,-37.75647 0.35835,-48.50474 -5.83788,-45.89394 -24.74856,-86.2639 -55.18026,-117.79722 -8.27278,-8.57225 -9.38999,-10.566 -9.43075,-16.829971 -0.0267,-4.094629 0.29121,-5.316933 2.17626,-8.368756 2.89889,-4.693171 7.81234,-7.762079 13.134,-8.203392 6.59345,-0.54678 10.4223,1.854128 20.50373,12.85702 35.80382,39.076369 57.01479,86.332119 62.25929,138.707019 0.98447,9.83155 0.98264,35.3348 -0.003,45.22246 -5.34359,53.59174 -28.68085,104.40742 -65.09741,141.74628 -5.84556,5.9936 -7.27423,7.07137 -10.70733,8.07743 -4.27416,1.25252 -5.96364,1.3445 -8.80742,0.47946 z"
   style="fill:#fbdf90;fill-opacity:1;stroke-width:0.729395" /><path
   id="path878"
   d="m 377.82165,380.8325 c -7.90468,-2.58027 -12.54086,-8.54187 -12.54086,-16.12614 0,-5.33229 1.7366,-8.76396 7.66588,-15.14847 24.24694,-26.1085 36.97307,-58.34841 36.97307,-93.66626 0,-35.05593 -12.73796,-67.30862 -36.83599,-93.26923 -5.43248,-5.85238 -7.03189,-9.06557 -7.03189,-14.12702 0,-11.5291 10.14596,-19.25737 21.1134,-16.08228 3.60479,1.04358 4.91584,1.99054 9.90185,7.15198 6.64459,6.87836 16.13048,19.26758 21.58819,28.19567 11.47015,18.7636 19.5973,41.50619 23.0677,64.55141 1.82104,12.09268 1.81916,35.34022 -0.004,47.41065 -4.37303,28.95455 -14.92271,54.61547 -31.81573,77.3882 -7.28286,9.81771 -16.29817,19.65397 -20.00423,21.82588 -3.39094,1.98722 -9.06745,2.87817 -12.07752,1.89561 z"
   style="fill:#fbdf90;fill-opacity:1;stroke-width:0.729395" /><path
   id="path880"
   d="M 204.77752,387.16352 137.12618,333.0472 v -77.02971 -77.02972 l 67.65134,-54.11632 67.65134,-54.116325 0.18514,92.631175 c 0.10182,50.94716 0.10182,134.31522 0,185.26237 l -0.18514,92.63118 z"
   style="fill:#fbdf90;fill-opacity:0;stroke-width:0.729395" /><path
   id="path882"
   d="M 204.77752,387.16352 137.12618,333.0472 v -77.02971 -77.02972 l 67.65134,-54.11632 67.65134,-54.116325 0.18514,92.631175 c 0.10182,50.94716 0.10182,134.31522 0,185.26237 l -0.18514,92.63118 z"
   style="fill:#fbdf90;fill-opacity:0;stroke-width:0.729395" /></svg>
