<?xml version="1.0" encoding="UTF-8" standalone="no"?>
<svg
   xmlns:dc="http://purl.org/dc/elements/1.1/"
   xmlns:cc="http://creativecommons.org/ns#"
   xmlns:rdf="http://www.w3.org/1999/02/22-rdf-syntax-ns#"
   xmlns:svg="http://www.w3.org/2000/svg"
   xmlns="http://www.w3.org/2000/svg"
   xmlns:sodipodi="http://sodipodi.sourceforge.net/DTD/sodipodi-0.dtd"
   xmlns:inkscape="http://www.inkscape.org/namespaces/inkscape"
   inkscape:version="1.0 (4035a4fb49, 2020-05-01)"
   sodipodi:docname="sun.svg"
   version="1.1"
   width="512"
   viewBox="0 0 512 512"
   height="512"
   enable-background="new 0 0 512 512"
   id="Layer_1">
  <metadata
     id="metadata43">
    <rdf:RDF>
      <cc:Work
         rdf:about="">
        <dc:format>image/svg+xml</dc:format>
        <dc:type
           rdf:resource="http://purl.org/dc/dcmitype/StillImage" />
      </cc:Work>
    </rdf:RDF>
  </metadata>
  <defs
     id="defs41" />
  <sodipodi:namedview
     inkscape:current-layer="Layer_1"
     inkscape:window-maximized="0"
     inkscape:window-y="47"
     inkscape:window-x="20"
     inkscape:cy="254.90598"
     inkscape:cx="256"
     inkscape:zoom="1.3710938"
     showgrid="false"
     id="namedview39"
     inkscape:window-height="1013"
     inkscape:window-width="1880"
     inkscape:pageshadow="2"
     inkscape:pageopacity="0"
     guidetolerance="10"
     gridtolerance="10"
     objecttolerance="10"
     borderopacity="1"
     bordercolor="#666666"
     pagecolor="#ffffff" />
  <g
     id="g36">
    <path
       id="path2"
       d="m256 117c-76.645 0-139 62.355-139 139s62.355 139 139 139 139-62.355 139-139-62.355-139-139-139zm0 248c-60.103 0-109-48.897-109-109s48.897-109 109-109 109 48.897 109 109-48.897 109-109 109z" />
    <path
       id="path4"
       d="m256 81.643c8.284 0 15-6.716 15-15v-51.643c0-8.284-6.716-15-15-15s-15 6.716-15 15v51.643c0 8.284 6.716 15 15 15z" />
    <path
       id="path6"
       d="m497 241h-51.643c-8.284 0-15 6.716-15 15s6.716 15 15 15h51.643c8.284 0 15-6.716 15-15s-6.716-15-15-15z" />
    <path
       id="path8"
       d="m256 430.357c-8.284 0-15 6.716-15 15v51.643c0 8.284 6.716 15 15 15s15-6.716 15-15v-51.643c0-8.284-6.716-15-15-15z" />
    <path
       id="path10"
       d="m81.643 256c0-8.284-6.716-15-15-15h-51.643c-8.284 0-15 6.716-15 15s6.716 15 15 15h51.643c8.284 0 15-6.716 15-15z" />
    <path
       id="path12"
       d="m389.896 137.104c3.839 0 7.678-1.464 10.606-4.394l36.517-36.517c5.858-5.858 5.858-15.355 0-21.213-5.857-5.858-15.355-5.858-21.213 0l-36.517 36.517c-5.858 5.858-5.858 15.355 0 21.213 2.93 2.93 6.769 4.394 10.607 4.394z" />
    <path
       id="path14"
       d="m400.502 379.29c-5.857-5.857-15.355-5.857-21.213 0-5.858 5.858-5.858 15.355 0 21.213l36.518 36.517c2.929 2.929 6.768 4.393 10.606 4.393s7.678-1.465 10.606-4.394c5.858-5.858 5.858-15.355 0-21.213z" />
    <path
       id="path16"
       d="m111.497 379.289-36.517 36.517c-5.858 5.858-5.858 15.355 0 21.213 2.929 2.929 6.768 4.394 10.606 4.394s7.678-1.464 10.606-4.394l36.517-36.517c5.858-5.858 5.858-15.355 0-21.213-5.856-5.858-15.355-5.858-21.212 0z" />
    <path
       id="path18"
       d="m111.498 132.71c2.929 2.929 6.768 4.394 10.606 4.394s7.678-1.464 10.606-4.394c5.858-5.858 5.858-15.355 0-21.213l-36.517-36.517c-5.857-5.858-15.355-5.858-21.213 0s-5.858 15.355 0 21.213z" />
    <path
       id="path20"
       d="m322.912 94.993c1.883.782 3.832 1.152 5.751 1.152 5.879 0 11.46-3.479 13.857-9.248l19.818-47.688c3.179-7.65-.445-16.429-8.095-19.608-7.649-3.178-16.428.444-19.608 8.095l-19.818 47.688c-3.178 7.651.446 16.43 8.095 19.609z" />
    <path
       id="path22"
       d="m484.303 334.636-47.688-19.818c-7.651-3.179-16.429.444-19.608 8.095-3.179 7.65.445 16.429 8.095 19.608l47.688 19.818c1.883.782 3.832 1.152 5.751 1.152 5.879 0 11.46-3.479 13.857-9.248 3.179-7.649-.445-16.428-8.095-19.607z" />
    <path
       id="path24"
       d="m189.088 417.007c-7.651-3.178-16.429.444-19.608 8.095l-19.818 47.688c-3.179 7.65.445 16.429 8.095 19.608 1.883.782 3.832 1.152 5.751 1.152 5.879 0 11.46-3.479 13.857-9.248l19.818-47.688c3.178-7.649-.446-16.428-8.095-19.607z" />
    <path
       id="path26"
       d="m27.697 177.364 47.688 19.818c1.883.782 3.832 1.152 5.751 1.152 5.879 0 11.46-3.479 13.857-9.248 3.179-7.65-.445-16.429-8.095-19.608l-47.688-19.817c-7.65-3.177-16.429.445-19.608 8.095s.445 16.429 8.095 19.608z" />
    <path
       id="path28"
       d="m417.163 189.465c2.389 5.785 7.979 9.28 13.871 9.28 1.907 0 3.846-.366 5.718-1.139l47.734-19.707c7.657-3.161 11.303-11.931 8.142-19.589-3.162-7.658-11.934-11.302-19.589-8.141l-47.734 19.707c-7.658 3.162-11.303 11.932-8.142 19.589z" />
    <path
       id="path30"
       d="m342.124 425.304c-3.161-7.658-11.933-11.301-19.589-8.141-7.658 3.161-11.303 11.931-8.142 19.589l19.707 47.735c2.389 5.785 7.979 9.28 13.871 9.28 1.907 0 3.846-.366 5.718-1.139 7.658-3.161 11.303-11.932 8.142-19.589z" />
    <path
       id="path32"
       d="m94.837 322.535c-3.161-7.657-11.929-11.304-19.589-8.141l-47.735 19.707c-7.657 3.161-11.303 11.931-8.142 19.589 2.389 5.785 7.978 9.28 13.871 9.28 1.906 0 3.846-.366 5.718-1.139l47.735-19.707c7.658-3.162 11.303-11.932 8.142-19.589z" />
    <path
       id="path34"
       d="m169.876 86.696c2.389 5.785 7.979 9.28 13.871 9.28 1.907 0 3.846-.366 5.718-1.139 7.658-3.161 11.303-11.931 8.142-19.589l-19.707-47.735c-3.162-7.658-11.934-11.302-19.589-8.141-7.658 3.161-11.303 11.932-8.142 19.589z" />
  </g>
  <path
     id="path868"
     d="m 240.68376,393.76718 c -42.38299,-4.7967 -80.82915,-29.50295 -103.29502,-66.3794 -26.45737,-43.42828 -26.45737,-99.34728 0,-142.77556 14.25153,-23.39307 36.2186,-43.17089 60.19429,-54.19529 28.04239,-12.89433 58.5476,-16.21908 88.2349,-9.61667 46.96056,10.44396 85.22558,44.4768 101.01697,89.84431 27.15221,78.00627 -20.19104,162.62401 -101.01697,180.55008 -14.61111,3.24054 -30.98528,4.17383 -45.13417,2.57253 z M 277.151,363.22649 c 32.98647,-6.71524 60.54204,-27.39748 75.77947,-56.87736 4.98878,-9.6518 8.02674,-18.2066 10.36879,-29.19813 2.35134,-11.03515 2.35134,-31.26685 0,-42.302 -2.34205,-10.99153 -5.38001,-19.54633 -10.36879,-29.19813 -15.48479,-29.95846 -43.60614,-50.7415 -77.60283,-57.35225 -10.02538,-1.94946 -30.34688,-1.74507 -40.47864,0.40714 -33.42118,7.09939 -60.55418,27.48871 -75.77947,56.94511 -4.98878,9.6518 -8.02674,18.2066 -10.36879,29.19813 -2.35134,11.03515 -2.35134,31.26685 0,42.302 7.06096,33.13799 27.40356,60.38588 56.33506,75.45797 4.26143,2.22003 9.99055,4.88048 12.73138,5.91213 6.24174,2.34939 18.08207,5.22675 25.17055,6.11681 8.54837,1.07336 25.42823,0.37701 34.21327,-1.41142 z"
     style="fill:#74c3e4;fill-opacity:0;stroke-width:0.729345" />
  <path
     id="path870"
     d="m 240.68376,393.76718 c -42.38299,-4.7967 -80.82915,-29.50295 -103.29502,-66.3794 -26.45737,-43.42828 -26.45737,-99.34728 0,-142.77556 14.25153,-23.39307 36.2186,-43.17089 60.19429,-54.19529 28.04239,-12.89433 58.5476,-16.21908 88.2349,-9.61667 46.96056,10.44396 85.22558,44.4768 101.01697,89.84431 27.15221,78.00627 -20.19104,162.62401 -101.01697,180.55008 -14.61111,3.24054 -30.98528,4.17383 -45.13417,2.57253 z M 277.151,363.22649 c 32.98647,-6.71524 60.54204,-27.39748 75.77947,-56.87736 4.98878,-9.6518 8.02674,-18.2066 10.36879,-29.19813 2.35134,-11.03515 2.35134,-31.26685 0,-42.302 -2.34205,-10.99153 -5.38001,-19.54633 -10.36879,-29.19813 -15.48479,-29.95846 -43.60614,-50.7415 -77.60283,-57.35225 -10.02538,-1.94946 -30.34688,-1.74507 -40.47864,0.40714 -33.42118,7.09939 -60.55418,27.48871 -75.77947,56.94511 -4.98878,9.6518 -8.02674,18.2066 -10.36879,29.19813 -2.35134,11.03515 -2.35134,31.26685 0,42.302 7.06096,33.13799 27.40356,60.38588 56.33506,75.45797 4.26143,2.22003 9.99055,4.88048 12.73138,5.91213 6.24174,2.34939 18.08207,5.22675 25.17055,6.11681 8.54837,1.07336 25.42823,0.37701 34.21327,-1.41142 z"
     style="fill:#74c3e4;fill-opacity:1;stroke-width:0.729345" />
  <path
     id="path872"
     d="m 424.50368,196.41589 c -7.06898,-3.71615 -9.90384,-11.97322 -6.51449,-18.97468 0.84334,-1.74211 2.56642,-3.94742 3.82906,-4.90068 1.26264,-0.95326 13.61879,-6.41256 27.4581,-12.13178 28.01991,-11.57948 30.2215,-12.15305 35.69562,-9.29973 5.13972,2.67903 7.57713,6.30864 7.92708,11.80442 0.34628,5.43828 -1.34686,9.51436 -5.14303,12.38138 -3.52955,2.66566 -52.06448,22.51661 -55.98394,22.89763 -2.60495,0.25323 -4.10445,-0.11328 -7.2684,-1.77656 z"
     style="fill:#74c3e4;fill-opacity:1;stroke-width:0.729345" />
  <path
     id="path874"
     d="m 384,135.36603 c -7.81978,-3.44642 -10.91901,-13.75236 -6.28464,-20.89845 2.65678,-4.09668 39.08109,-40.265988 42.02253,-41.72833 6.00383,-2.984815 12.06548,-1.999909 16.79412,2.728736 5.04996,5.049956 5.80951,11.239823 2.15029,17.523467 -2.56263,4.400551 -39.52883,40.899347 -42.80702,42.265757 -3.28684,1.37002 -8.89704,1.42143 -11.87528,0.10882 z"
     style="fill:#74c3e4;fill-opacity:1;stroke-width:0.729345" />
  <path
     id="path876"
     d="m 322.07503,93.932702 c -1.56642,-0.918829 -3.84908,-2.913569 -5.07257,-4.432762 -1.83466,-2.27807 -2.27075,-3.556319 -2.48824,-7.293447 -0.2576,-4.426511 -0.0112,-5.135827 10.65842,-30.678282 7.19846,-17.232757 11.60874,-26.863688 12.93611,-28.249161 4.53756,-4.736199 12.87557,-5.599036 18.45105,-1.909358 3.96127,2.621443 7.00993,8.846286 6.42242,13.113475 -0.47564,3.454637 -20.15857,51.419894 -22.53988,54.927332 -2.60036,3.830084 -6.03754,5.68189 -11.04735,5.951828 -3.63021,0.19561 -5.00797,-0.07347 -7.31996,-1.429625 z"
     style="fill:#74c3e4;fill-opacity:1;stroke-width:0.729345" />
  <path
     id="path878"
     d="m 249.80057,79.745364 c -3.38486,-1.784451 -5.53832,-3.9891 -7.00897,-7.175563 -1.23574,-2.677475 -1.34778,-5.273367 -1.36248,-31.567586 -0.0136,-24.235159 0.15794,-29.066537 1.11281,-31.3518691 4.99087,-11.9448212 21.92527,-11.9448212 26.91614,0 0.9535,2.2820521 1.12882,7.1268171 1.12882,31.1929591 0,30.601562 -0.10713,31.589142 -3.86387,35.61658 -3.9833,4.270335 -12.07452,5.841234 -16.92245,3.285479 z"
     style="fill:#74c3e4;fill-opacity:1;stroke-width:0.729345" />
  <path
     id="path880"
     d="m 178.84365,94.72089 c -5.45829,-1.574123 -7.06413,-4.34938 -18.32069,-31.662197 -11.69405,-28.374354 -12.26523,-30.560448 -9.41394,-36.030661 2.67903,-5.139721 6.30864,-7.577131 11.80442,-7.927076 5.43828,-0.346284 9.51436,1.346852 12.38138,5.143024 2.47251,3.273807 22.47913,51.973006 22.91811,55.786214 0.27025,2.347523 -0.0977,4.009778 -1.54031,6.958357 -3.45218,7.055988 -10.13074,9.95245 -17.82897,7.732339 z"
     style="fill:#74c3e4;fill-opacity:1;stroke-width:0.729345" />
  <path
     id="path882"
     d="m 115.96581,135.26662 c -3.161,-1.4151 -40.281207,-38.210712 -42.648106,-42.275167 -3.659224,-6.283644 -2.899673,-12.473511 2.150282,-17.523467 5.049956,-5.049955 11.239823,-5.809506 17.523467,-2.150282 3.777823,2.199982 40.655837,39.323416 42.298317,42.579816 1.79544,3.55966 1.26066,10.70998 -1.05363,14.08746 -2.82162,4.11789 -6.14038,5.9482 -11.24571,6.20206 -2.92006,0.1452 -5.35776,-0.1742 -7.02462,-0.92042 z"
     style="fill:#74c3e4;fill-opacity:1;stroke-width:0.729345" />
  <path
     id="path884"
     d="m 51.138297,186.73354 c -16.631292,-7.0093 -26.546051,-11.58417 -27.884488,-12.86647 -4.704092,-4.50681 -5.564867,-12.86489 -1.8959,-18.40907 2.194186,-3.31564 8.259776,-6.67168 12.058165,-6.67168 2.36737,0 48.644811,18.58817 55.00695,22.09453 4.260449,2.34806 6.651408,6.3848 6.938712,11.71486 0.284809,5.28367 -1.37359,8.78719 -5.875782,12.41315 -2.394661,1.92861 -3.447026,2.26096 -7.65812,2.41859 -4.810187,0.18005 -5.261404,0.0228 -30.689537,-10.69391 z"
     style="fill:#74c3e4;fill-opacity:1;stroke-width:0.729345" />
  <path
     id="path886"
     d="m 9.486689,269.42506 c -11.7960603,-5.11543 -11.6937054,-21.92881 0.1636569,-26.88313 4.0254961,-1.68196 58.3604221,-1.68196 62.3859181,0 11.94482,4.99087 11.94482,21.92527 0,26.91614 -3.973158,1.66009 -58.71194,1.6312 -62.549575,-0.033 z"
     style="fill:#74c3e4;fill-opacity:1;stroke-width:0.729345" />
  <path
     id="path888"
     d="m 27.720307,361.36291 c -9.597825,-4.31442 -11.835866,-17.12118 -4.231694,-24.21506 2.294713,-2.14072 52.544474,-22.90281 56.541581,-23.36173 2.346427,-0.2694 4.011155,0.0993 6.958357,1.54126 5.556514,2.71855 8.555609,7.44583 8.555609,13.48566 0,3.4637 -2.547332,8.52112 -5.362411,10.64643 -1.26264,0.95326 -13.618786,6.41256 -27.458102,12.13178 -26.847868,11.09512 -30.062701,11.99259 -35.00334,9.77166 z"
     style="fill:#74c3e4;fill-opacity:1;stroke-width:0.729345" />
  <path
     id="path890"
     d="m 81.38424,440.37952 c -4.12207,-1.13527 -8.715163,-5.99396 -9.822118,-10.39007 -0.939922,-3.73277 -0.602547,-6.67153 1.176903,-10.25156 1.533039,-3.08428 38.554175,-40.19212 42.339215,-42.43837 2.67681,-1.58857 3.78637,-1.81166 7.75396,-1.55902 7.74019,0.49286 12.79006,5.24143 13.40036,12.60085 0.60112,7.24873 0.19438,7.81451 -20.90887,29.08392 -10.67817,10.76224 -20.727679,20.34529 -22.332237,21.29565 -3.551417,2.10347 -7.791833,2.7094 -11.607213,1.6586 z"
     style="fill:#74c3e4;fill-opacity:1;stroke-width:0.729345" />
  <path
     id="path892"
     d="m 156.74149,491.33939 c -3.89622,-2.05773 -7.24417,-7.08631 -7.75901,-11.65391 -0.32217,-2.8583 0.75193,-5.89179 10.01784,-28.29253 5.70828,-13.80003 11.05452,-26.31721 11.88053,-27.81597 2.34806,-4.26045 6.3848,-6.65141 11.71486,-6.93872 5.27413,-0.28429 8.78705,1.37332 12.38894,5.84587 1.7684,2.19586 2.27483,3.61985 2.52694,7.10527 0.3071,4.24549 0.0342,5.03615 -10.47907,30.3571 -5.93691,14.29894 -11.62413,26.98417 -12.63826,28.1894 -4.08399,4.85354 -11.85743,6.2642 -17.65277,3.20349 z"
     style="fill:#74c3e4;fill-opacity:1;stroke-width:0.729345" />
  <path
     id="path894"
     d="m 249.80057,510.05875 c -3.38486,-1.78445 -5.53832,-3.9891 -7.00897,-7.17556 -1.23574,-2.67747 -1.34778,-5.27337 -1.36248,-31.56758 -0.0136,-24.23516 0.15794,-29.06654 1.11281,-31.35187 4.99087,-11.94483 21.92527,-11.94483 26.91614,0 0.9535,2.28205 1.12882,7.12681 1.12882,31.19296 0,30.60156 -0.10713,31.58914 -3.86387,35.61657 -3.9833,4.27034 -12.07452,5.84124 -16.92245,3.28548 z"
     style="fill:#74c3e4;fill-opacity:1;stroke-width:0.729345" />
  <path
     id="path896"
     d="m 341.19014,491.58884 c -1.48274,-0.80512 -3.50237,-2.53173 -4.48807,-3.83689 -0.9857,-1.30517 -6.49131,-13.69611 -12.2347,-27.53543 -9.1199,-21.97539 -10.44518,-25.67771 -10.4635,-29.23098 -0.0542,-10.51623 11.00526,-17.61926 20.37272,-13.08455 1.84232,0.89185 4.12962,2.65462 5.08288,3.91726 2.9328,3.88464 22.4874,52.0892 22.82528,56.26722 0.36675,4.53489 -1.80688,9.11137 -5.85863,12.33506 -2.36717,1.8834 -3.49536,2.23998 -7.65811,2.42049 -3.79326,0.16449 -5.48317,-0.11476 -7.57787,-1.25218 z"
     style="fill:#74c3e4;fill-opacity:1;stroke-width:0.729345" />
  <path
     id="path898"
     d="m 422.20678,440.24734 c -1.4501,-0.5182 -3.58343,-1.6283 -4.74075,-2.46689 -4.01446,-2.90886 -39.50876,-39.20647 -40.75557,-41.67797 -1.7957,-3.55952 -1.26104,-10.70976 1.0534,-14.08746 2.81996,-4.11547 6.13417,-5.93897 11.40394,-6.27452 3.96759,-0.25264 5.07715,-0.0295 7.75396,1.55902 3.78504,2.24625 40.80618,39.35409 42.33922,42.43837 1.77944,3.58003 2.11682,6.51879 1.1769,10.25156 -1.19011,4.72634 -5.66034,9.24277 -10.30608,10.41258 -4.12938,1.03979 -4.6087,1.03044 -7.92502,-0.15469 z"
     style="fill:#74c3e4;fill-opacity:1;stroke-width:0.729345" />
  <path
     id="path900"
     d="m 450.0057,352.39687 c -14.24046,-5.9322 -26.6403,-11.25856 -27.5552,-11.83636 -5.45562,-3.44543 -7.68652,-12.85393 -4.3832,-18.48548 0.91883,-1.56642 2.91357,-3.84908 4.43276,-5.07257 2.27807,-1.83466 3.55632,-2.27075 7.29345,-2.48824 4.42651,-0.2576 5.13582,-0.0112 30.67828,10.65842 17.23276,7.19846 26.86369,11.60874 28.24916,12.93611 4.80994,4.60822 5.61918,12.9769 1.78925,18.50349 -2.36485,3.41248 -8.19887,6.60879 -12.02092,6.58595 -1.65904,-0.01 -11.91032,-3.89733 -28.48358,-10.80132 z"
     style="fill:#74c3e4;fill-opacity:1;stroke-width:0.729345" />
  <path
     id="path902"
     d="m 439.80008,269.42506 c -11.79606,-5.11543 -11.69371,-21.92881 0.16366,-26.88313 4.02549,-1.68196 58.36042,-1.68196 62.38591,0 11.94482,4.99087 11.94482,21.92527 0,26.91614 -3.97315,1.66009 -58.71194,1.6312 -62.54957,-0.033 z"
     style="fill:#74c3e4;fill-opacity:1;stroke-width:0.729345" />
</svg>
